<svg width="288" height="216" viewBox="0 0 288 216" fill="none" xmlns="http://www.w3.org/2000/svg">
<g clip-path="url(#clip0)">
<g opacity="0.1">
<path opacity="0.1" d="M188.795 212.727C192.764 212.727 195.981 208.516 195.981 203.322C195.981 198.128 192.764 193.918 188.795 193.918C184.827 193.918 181.609 198.128 181.609 203.322C181.609 208.516 184.827 212.727 188.795 212.727Z" fill="#3F3D56"/>
<path opacity="0.1" d="M194.481 163.089C195.488 161.342 196.01 159.357 195.994 157.341C195.994 152.136 192.777 147.937 188.808 147.937C184.84 147.937 181.626 152.146 181.626 157.341C181.605 159.356 182.123 161.341 183.125 163.089C182.142 164.845 181.626 166.823 181.626 168.836C181.626 170.848 182.142 172.826 183.125 174.582C182.142 176.338 181.626 178.317 181.626 180.33C181.626 182.343 182.142 184.322 183.125 186.078C182.123 187.827 181.605 189.811 181.626 191.826C181.626 197.031 184.843 201.231 188.808 201.231C192.774 201.231 195.994 197.021 195.994 191.826C196.014 189.811 195.497 187.827 194.494 186.078C195.478 184.322 195.994 182.343 195.994 180.33C195.994 178.317 195.478 176.338 194.494 174.582C195.478 172.826 195.994 170.848 195.994 168.836C195.994 166.823 195.478 164.845 194.494 163.089H194.481Z" fill="#3F3D56"/>
<path opacity="0.1" d="M188.795 155.252C192.764 155.252 195.981 151.042 195.981 145.848C195.981 140.654 192.764 136.443 188.795 136.443C184.827 136.443 181.609 140.654 181.609 145.848C181.609 151.042 184.827 155.252 188.795 155.252Z" fill="#3F3D56"/>
<path opacity="0.1" d="M188.795 143.757C192.764 143.757 195.981 139.547 195.981 134.353C195.981 129.159 192.764 124.948 188.795 124.948C184.827 124.948 181.609 129.159 181.609 134.353C181.609 139.547 184.827 143.757 188.795 143.757Z" fill="#3F3D56"/>
<path opacity="0.1" d="M154.229 76.9656C154.217 84.6844 156.812 92.181 161.593 98.2403C157.601 103.316 155.117 109.414 154.426 115.835C153.735 122.256 154.865 128.742 157.687 134.551C160.508 140.361 164.908 145.259 170.382 148.686C175.856 152.112 182.184 153.93 188.642 153.93C195.1 153.93 201.428 152.112 206.902 148.686C212.377 145.259 216.776 140.361 219.598 134.551C222.419 128.742 223.549 122.256 222.858 115.835C222.167 109.414 219.684 103.316 215.691 98.2403C220.304 92.3849 154.229 73.101 154.229 76.9656Z" fill="black"/>
</g>
<g opacity="0.1">
<path opacity="0.1" d="M85.8175 207.653C89.0496 207.653 91.6697 204.223 91.6697 199.992C91.6697 195.761 89.0496 192.331 85.8175 192.331C82.5854 192.331 79.9653 195.761 79.9653 199.992C79.9653 204.223 82.5854 207.653 85.8175 207.653Z" fill="#3F3D56"/>
</g>
<path d="M287.581 206.838C287.581 209.124 275.983 211.214 256.807 212.828C253.32 213.118 249.583 213.394 245.62 213.654C242.196 213.876 238.607 214.085 234.853 214.283C231.216 214.469 227.44 214.642 223.525 214.802C211.16 215.311 197.49 215.677 182.968 215.86C179.443 215.907 175.872 215.942 172.254 215.967C168.485 215.991 164.673 216.002 160.817 216C90.807 216 34.0557 211.903 34.0557 206.848C34.0557 201.792 90.807 197.695 160.817 197.695C190.959 197.695 218.638 198.457 240.393 199.722L242.772 199.862H242.786C270.191 201.536 287.581 204.055 287.581 206.838Z" fill="#E1EEFA"/>
<path d="M137.638 116.334C126.539 116.334 117.791 111.929 111.396 103.117C105 94.306 101.803 83.6318 101.803 71.0947C101.803 58.473 104.895 47.8204 111.08 39.1371C117.265 30.4537 125.99 26.1163 137.254 26.125C149.199 26.125 158.199 30.6998 164.254 39.8495C170.309 48.9991 173.338 59.5888 173.34 71.6184C173.34 83.5613 170.206 94.0013 163.939 102.938C157.671 111.876 148.904 116.341 137.638 116.334ZM137.963 106.422C145.265 106.422 150.723 103.24 154.336 96.8748C157.949 90.5097 159.755 82.4856 159.755 72.8025C159.755 62.0242 157.906 53.1988 154.209 46.3262C150.511 39.4537 144.84 36.0163 137.195 36.0142C122.665 36.0142 115.4 47.5559 115.4 70.6392C115.4 94.4968 122.919 106.425 137.957 106.422H137.963ZM141.62 201.342H125.566L230.664 27.8914H246.415L141.62 201.342ZM234.597 203.121C223.331 203.121 214.548 198.676 208.248 189.784C201.948 180.893 198.785 170.217 198.759 157.758C198.759 145.221 201.83 134.611 207.971 125.927C214.113 117.244 222.859 112.907 234.21 112.915C246.071 112.915 255.008 117.49 261.021 126.64C267.035 135.79 270.043 146.378 270.045 158.406C270.045 170.27 266.932 180.691 260.706 189.667C254.48 198.643 245.775 203.128 234.591 203.121H234.597ZM234.786 192.956C242.053 192.956 247.481 189.827 251.07 183.571C254.66 177.314 256.454 169.323 256.454 159.596C256.454 149.186 254.638 140.456 251.005 133.406C247.373 126.356 241.714 122.825 234.028 122.814C219.413 122.814 212.106 134.356 212.106 157.439C212.102 181.119 219.659 192.958 234.779 192.956H234.786Z" fill="#3F3D56"/>
<path d="M137.638 116.334C126.539 116.334 117.791 111.929 111.396 103.117C105 94.306 101.803 83.6318 101.803 71.0947C101.803 58.473 104.895 47.8204 111.08 39.1371C117.265 30.4537 125.99 26.1163 137.254 26.125C149.199 26.125 158.199 30.6998 164.254 39.8495C170.309 48.9991 173.338 59.5888 173.34 71.6184C173.34 83.5613 170.206 94.0013 163.939 102.938C157.671 111.876 148.904 116.341 137.638 116.334ZM137.963 106.422C145.265 106.422 150.723 103.24 154.336 96.8748C157.949 90.5097 159.755 82.4856 159.755 72.8025C159.755 62.0242 157.906 53.1988 154.209 46.3262C150.511 39.4537 144.84 36.0163 137.195 36.0142C122.665 36.0142 115.4 47.5559 115.4 70.6392C115.4 94.4968 122.919 106.425 137.957 106.422H137.963ZM141.62 201.342H125.566L230.664 27.8914H246.415L141.62 201.342ZM234.597 203.121C223.331 203.121 214.548 198.676 208.248 189.784C201.948 180.893 198.785 170.217 198.759 157.758C198.759 145.221 201.83 134.611 207.971 125.927C214.113 117.244 222.859 112.907 234.21 112.915C246.071 112.915 255.008 117.49 261.021 126.64C267.035 135.79 270.043 146.378 270.045 158.406C270.045 170.27 266.932 180.691 260.706 189.667C254.48 198.643 245.775 203.128 234.591 203.121H234.597ZM234.786 192.956C242.053 192.956 247.481 189.827 251.07 183.571C254.66 177.314 256.454 169.323 256.454 159.596C256.454 149.186 254.638 140.456 251.005 133.406C247.373 126.356 241.714 122.825 234.028 122.814C219.413 122.814 212.106 134.356 212.106 157.439C212.102 181.119 219.659 192.958 234.779 192.956H234.786Z" fill="#3F3D56"/>
<path d="M137.638 116.334C126.539 116.334 117.791 111.929 111.396 103.117C105 94.306 101.803 83.6318 101.803 71.0947C101.803 58.473 104.895 47.8204 111.08 39.1371C117.265 30.4537 125.99 26.1163 137.254 26.125C149.199 26.125 158.199 30.6998 164.254 39.8495C170.309 48.9991 173.338 59.5888 173.34 71.6184C173.34 83.5613 170.206 94.0013 163.939 102.938C157.671 111.876 148.904 116.341 137.638 116.334ZM137.963 106.422C145.265 106.422 150.723 103.24 154.336 96.8748C157.949 90.5097 159.755 82.4856 159.755 72.8025C159.755 62.0242 157.906 53.1988 154.209 46.3262C150.511 39.4537 144.84 36.0163 137.195 36.0142C122.665 36.0142 115.4 47.5559 115.4 70.6392C115.4 94.4968 122.919 106.425 137.957 106.422H137.963ZM141.62 201.342H125.566L230.664 27.8914H246.415L141.62 201.342ZM234.597 203.121C223.331 203.121 214.548 198.676 208.248 189.784C201.948 180.893 198.785 170.217 198.759 157.758C198.759 145.221 201.83 134.611 207.971 125.927C214.113 117.244 222.859 112.907 234.21 112.915C246.071 112.915 255.008 117.49 261.021 126.64C267.035 135.79 270.043 146.378 270.045 158.406C270.045 170.27 266.932 180.691 260.706 189.667C254.48 198.643 245.775 203.128 234.591 203.121H234.597ZM234.786 192.956C242.053 192.956 247.481 189.827 251.07 183.571C254.66 177.314 256.454 169.323 256.454 159.596C256.454 149.186 254.638 140.456 251.005 133.406C247.373 126.356 241.714 122.825 234.028 122.814C219.413 122.814 212.106 134.356 212.106 157.439C212.102 181.119 219.659 192.958 234.779 192.956H234.786Z" fill="#076ACF"/>
<path d="M127.553 116.334C116.454 116.334 107.707 111.929 101.311 103.117C94.916 94.306 91.7183 83.6318 91.7183 71.0947C91.7183 58.473 94.8108 47.8204 100.996 39.1371C107.181 30.4537 115.905 26.1163 127.17 26.125C139.115 26.125 148.115 30.6998 154.17 39.8495C160.225 48.9991 163.253 59.5888 163.255 71.6184C163.255 83.5613 160.122 94.0013 153.854 102.938C147.587 111.876 138.82 116.341 127.553 116.334ZM127.879 106.422C135.181 106.422 140.638 103.24 144.251 96.8748C147.864 90.5097 149.671 82.4856 149.671 72.8025C149.671 62.0242 147.822 53.1988 144.124 46.3262C140.427 39.4537 134.756 36.0163 127.111 36.0142C112.581 36.0142 105.316 47.5559 105.316 70.6392C105.316 94.4968 112.835 106.425 127.872 106.422H127.879ZM131.535 201.342H115.482L220.58 27.8914H236.331L131.535 201.342ZM224.513 203.121C213.246 203.121 204.463 198.676 198.163 189.784C191.863 180.893 188.7 170.217 188.674 157.758C188.674 145.221 191.745 134.611 197.887 125.927C204.028 117.244 212.775 112.907 224.126 112.915C235.986 112.915 244.923 117.49 250.937 126.64C256.951 135.79 259.959 146.378 259.961 158.406C259.961 170.27 256.848 180.691 250.621 189.667C244.395 198.643 235.69 203.128 224.506 203.121H224.513ZM224.701 192.956C231.969 192.956 237.397 189.827 240.986 183.571C244.575 177.314 246.37 169.323 246.37 159.596C246.37 149.186 244.553 140.456 240.921 133.406C237.288 126.356 231.627 122.825 223.937 122.814C209.322 122.814 202.015 134.356 202.015 157.439C202.015 181.119 209.575 192.958 224.695 192.956H224.701Z" fill="#007EFF"/>
<path d="M102.317 177.328L103.439 177.556L107.261 183.203L105.573 183.431L102.317 177.328Z" fill="#2F2E41"/>
<path d="M75.1382 200.249C75.4408 201.25 75.8137 202.229 76.254 203.177C77.5205 202.912 78.7663 202.557 79.9819 202.113C79.7466 201.747 79.488 201.396 79.2077 201.063C78.9089 200.73 78.5516 200.456 78.1537 200.253C77.7666 200.083 77.2884 200.21 76.8753 200.233C76.2963 200.255 75.7172 200.26 75.1382 200.249Z" fill="#FBBEBE"/>
<path d="M78.1597 201.758C77.5286 201.56 77.1415 200.922 76.8845 200.307C76.6275 199.693 76.4193 199.022 75.9314 198.57C75.8385 198.585 75.7507 198.622 75.6758 198.679C75.6008 198.736 75.5411 198.81 75.502 198.896C75.4076 199.058 75.3523 199.244 75.245 199.4C75.0433 199.693 74.6855 199.836 74.4285 200.086C74.1715 200.337 74.0121 200.717 73.7356 200.968C73.352 201.244 72.9039 201.416 72.4344 201.469C71.7253 201.629 71.0406 201.883 70.398 202.223C70.1602 202.361 69.9068 202.47 69.6433 202.549C69.3527 202.604 69.0553 202.614 68.7617 202.578L66.7351 202.432C66.555 202.409 66.3723 202.418 66.1951 202.458C65.9887 202.53 65.8123 202.669 65.6944 202.853C65.5764 203.037 65.5236 203.255 65.5445 203.473C65.5714 203.689 65.6431 203.898 65.7551 204.086C65.8671 204.274 66.017 204.436 66.1951 204.562C66.5474 204.814 66.9356 205.012 67.3467 205.148C69.1124 205.812 70.9292 206.331 72.7792 206.7V207.1C74.0649 207.736 75.4792 208.07 76.9138 208.076C77.0252 208.085 77.1372 208.066 77.2391 208.02C77.3709 207.924 77.4633 207.783 77.4993 207.623C77.9856 206.202 78.2692 204.719 78.3419 203.219C78.3792 202.839 78.3506 202.456 78.2573 202.087C78.1467 201.722 78.524 201.875 78.1727 201.732" fill="#5D3E53"/>
<path d="M117.014 194.121C111.006 194.485 105.072 192.722 99.0544 192.533C98.3075 192.488 97.5578 192.536 96.8228 192.676C96.0566 192.882 95.3149 193.17 94.6108 193.535C91.387 195.035 88.0494 196.277 84.7151 197.52L80.8895 198.945C80.1218 199.228 79.3314 199.517 78.5149 199.469C78.1505 199.446 77.7049 199.391 77.4967 199.696C76.8753 200.617 77.1714 201.973 77.5812 203.008C77.7146 203.333 77.9391 203.707 78.2969 203.746C78.55 203.729 78.798 203.666 79.0288 203.561C79.725 203.375 80.4211 203.844 81.1368 203.919C82.0249 204.013 82.8479 203.509 83.6839 203.2C85.0697 202.689 86.5856 202.705 88.0429 202.461C90.4892 202.055 92.7533 200.919 94.8743 199.625C95.681 199.134 96.5008 198.607 97.4246 198.428C98.4883 198.219 99.5846 198.493 100.629 198.789C103.118 199.493 105.569 200.328 107.971 201.29C109.221 201.833 110.503 202.301 111.809 202.689C114.657 203.439 117.669 203.263 120.41 202.188C121.386 201.807 122.414 201.137 122.47 200.1C122.502 199.508 122.043 198.987 121.738 198.473C121.539 198.148 121.344 197.823 121.129 197.514C120.095 196.004 118.839 194.01 117.014 194.121Z" fill="#2F2E41"/>
<path d="M117.014 194.121C111.006 194.485 105.072 192.722 99.0544 192.533C98.3075 192.488 97.5578 192.536 96.8228 192.676C96.0566 192.882 95.3149 193.17 94.6108 193.535C91.387 195.035 88.0494 196.277 84.7151 197.52L80.8895 198.945C80.1218 199.228 79.3314 199.517 78.5149 199.469C78.1505 199.446 77.7049 199.391 77.4967 199.696C76.8753 200.617 77.1714 201.973 77.5812 203.008C77.7146 203.333 77.9391 203.707 78.2969 203.746C78.55 203.729 78.798 203.666 79.0288 203.561C79.725 203.375 80.4211 203.844 81.1368 203.919C82.0249 204.013 82.8479 203.509 83.6839 203.2C85.0697 202.689 86.5856 202.705 88.0429 202.461C90.4892 202.055 92.7533 200.919 94.8743 199.625C95.681 199.134 96.5008 198.607 97.4246 198.428C98.4883 198.219 99.5846 198.493 100.629 198.789C103.118 199.493 105.569 200.328 107.971 201.29C109.221 201.833 110.503 202.301 111.809 202.689C114.657 203.439 117.669 203.263 120.41 202.188C121.386 201.807 122.414 201.137 122.47 200.1C122.502 199.508 122.043 198.987 121.738 198.473C121.539 198.148 121.344 197.823 121.129 197.514C120.095 196.004 118.839 194.01 117.014 194.121Z" fill="#575988"/>
<path d="M86.6699 200.542C87.6111 200.86 88.5588 201.155 89.5131 201.427C90.0498 200.545 91.0517 199.933 91.2795 198.928C91.2924 198.885 91.2924 198.838 91.2795 198.795C91.2546 198.752 91.2171 198.718 91.1721 198.697C90.4863 198.319 89.7254 198.097 88.9438 198.047C88.3257 198.008 88.0459 198.652 87.7662 199.104C87.6686 199.286 86.9204 200.626 86.6699 200.542Z" fill="#FBBEBE"/>
<path d="M87.9938 199.897C87.7129 199.85 87.4448 199.746 87.2068 199.589C86.9687 199.433 86.7659 199.229 86.6113 198.99C86.4779 198.759 86.338 198.446 86.0713 198.463C85.8045 198.479 85.7134 198.772 85.6581 199.016C85.478 199.927 85.2178 200.821 84.8807 201.686C84.5406 202.554 83.9649 203.31 83.2184 203.869C82.8703 204.11 82.4832 204.292 82.1416 204.546C81.857 204.8 81.5524 205.03 81.2308 205.235C81.0043 205.339 80.7705 205.426 80.5314 205.496C80.1809 205.618 79.8457 205.781 79.5327 205.98C79.2583 206.141 79.0255 206.364 78.8528 206.631C78.7696 206.766 78.7207 206.92 78.7105 207.079C78.7003 207.238 78.7291 207.397 78.7943 207.542C78.8644 207.66 78.9586 207.761 79.0707 207.84C79.1828 207.919 79.3103 207.974 79.4449 208C79.7191 208.046 79.9984 208.052 80.2744 208.02C81.3707 207.939 82.4637 207.841 83.5567 207.743C84.0194 207.715 84.4794 207.652 84.9327 207.555C85.1735 207.496 85.4077 207.418 85.6451 207.356C86.0551 207.252 86.4748 207.191 86.8975 207.174C87.0201 207.165 87.1434 207.177 87.2619 207.21C87.5156 207.291 87.6945 207.535 87.9548 207.594C88.1224 207.611 88.2918 207.589 88.4492 207.529C89.2492 207.359 90.0648 207.274 90.8825 207.275C91.2403 207.255 91.6632 207.187 91.8259 206.865C92.0308 206.465 91.6925 206.016 91.5559 205.587C91.4884 205.312 91.4502 205.03 91.442 204.747C91.3804 204.048 91.1756 203.37 90.8402 202.753C90.5604 202.239 90.1896 201.673 90.375 201.127C90.4747 200.956 90.5379 200.767 90.5604 200.57C90.5149 199.689 88.4883 200.014 87.9938 199.897Z" fill="#5D3E53"/>
<path d="M108.006 184.485C106.942 184.016 106.089 183.169 105.612 182.107C105.515 181.88 105.43 181.642 105.336 181.411C105.019 180.648 104.529 179.968 103.904 179.427C103.838 179.353 103.756 179.295 103.664 179.256C103.572 179.218 103.474 179.199 103.374 179.203C103.278 179.231 103.191 179.285 103.123 179.358C103.054 179.431 103.006 179.521 102.984 179.619C102.928 179.831 102.914 180.052 102.942 180.269C102.997 180.774 103.084 181.275 103.202 181.769L103.495 183.096C103.531 183.3 103.593 183.499 103.677 183.688C103.802 183.911 103.967 184.108 104.165 184.271C104.431 184.518 104.701 184.755 104.975 184.986C105.125 185.123 105.29 185.243 105.466 185.344C105.754 185.481 106.063 185.571 106.38 185.611C107.574 185.832 108.787 186.151 109.792 186.912C109.792 186.912 109.792 186.024 109.77 185.936C109.757 185.679 109.669 185.431 109.516 185.224C109.138 184.817 108.488 184.697 108.006 184.485Z" fill="#FBBEBE"/>
<path opacity="0.1" d="M108.006 184.485C106.942 184.016 106.089 183.169 105.612 182.107C105.515 181.88 105.43 181.642 105.336 181.411C105.019 180.648 104.529 179.968 103.904 179.427C103.838 179.353 103.756 179.295 103.664 179.256C103.572 179.218 103.474 179.199 103.374 179.203C103.278 179.231 103.191 179.285 103.123 179.358C103.054 179.431 103.006 179.521 102.984 179.619C102.928 179.831 102.914 180.052 102.942 180.269C102.997 180.774 103.084 181.275 103.202 181.769L103.495 183.096C103.531 183.3 103.593 183.499 103.677 183.688C103.802 183.911 103.967 184.108 104.165 184.271C104.431 184.518 104.701 184.755 104.975 184.986C105.125 185.123 105.29 185.243 105.466 185.344C105.754 185.481 106.063 185.571 106.38 185.611C107.574 185.832 108.787 186.151 109.792 186.912C109.792 186.912 109.792 186.024 109.77 185.936C109.757 185.679 109.669 185.431 109.516 185.224C109.138 184.817 108.488 184.697 108.006 184.485Z" fill="black"/>
<path d="M120.237 174.335C121.044 174.335 121.698 173.677 121.698 172.865C121.698 172.053 121.044 171.395 120.237 171.395C119.431 171.395 118.777 172.053 118.777 172.865C118.777 173.677 119.431 174.335 120.237 174.335Z" fill="#2F2E41"/>
<path d="M119.333 171.977C118.941 171.888 118.53 171.947 118.178 172.143C118.01 172.292 117.875 172.477 117.785 172.683C117.456 173.245 117.2 173.846 117.024 174.472C116.893 175.009 116.871 175.569 116.698 176.099C116.399 177.075 115.631 177.904 115.543 178.922C115.504 179.378 115.579 179.915 115.247 180.224C115.165 180.293 115.077 180.355 114.984 180.409C114.753 180.564 114.557 180.766 114.408 181.001C114.309 181.212 114.171 181.403 114.001 181.564C113.702 181.785 113.211 181.762 113.065 182.104C112.918 182.445 113.296 182.842 113.208 183.213C113.136 183.516 112.798 183.656 112.557 183.864C112.283 184.154 112.091 184.512 112.001 184.901C111.512 184.993 111.009 184.979 110.527 184.858C110.045 184.737 109.594 184.513 109.207 184.202C109.613 185.207 109.623 186.316 109.639 187.4C109.686 187.746 109.594 188.097 109.382 188.376C110.547 188.402 111.679 188.701 112.814 188.971C113.3 189.134 113.825 189.134 114.311 188.971C114.57 188.831 114.803 188.646 114.997 188.424C115.615 187.797 116.262 187.123 116.412 186.248C116.452 185.756 116.46 185.261 116.438 184.768C116.498 184.159 116.623 183.558 116.812 182.976C117.139 181.767 117.357 180.531 117.463 179.283C117.531 178.513 118.195 177.894 118.546 177.205C119.197 175.904 119.88 174.554 119.932 173.096C119.977 172.621 119.815 172.039 119.333 171.977Z" fill="#2F2E41"/>
<path d="M119.333 171.977C118.941 171.888 118.53 171.947 118.178 172.143C118.01 172.292 117.875 172.477 117.785 172.683C117.456 173.245 117.2 173.846 117.024 174.472C116.893 175.009 116.871 175.569 116.698 176.099C116.399 177.075 115.631 177.904 115.543 178.922C115.504 179.378 115.579 179.915 115.247 180.224C115.165 180.293 115.077 180.355 114.984 180.409C114.753 180.564 114.557 180.766 114.408 181.001C114.309 181.212 114.171 181.403 114.001 181.564C113.702 181.785 113.211 181.762 113.065 182.104C112.918 182.445 113.296 182.842 113.208 183.213C113.136 183.516 112.798 183.656 112.557 183.864C112.283 184.154 112.091 184.512 112.001 184.901C111.512 184.993 111.009 184.979 110.527 184.858C110.045 184.737 109.594 184.513 109.207 184.202C109.613 185.207 109.623 186.316 109.639 187.4C109.686 187.746 109.594 188.097 109.382 188.376C110.547 188.402 111.679 188.701 112.814 188.971C113.3 189.134 113.825 189.134 114.311 188.971C114.57 188.831 114.803 188.646 114.997 188.424C115.615 187.797 116.262 187.123 116.412 186.248C116.452 185.756 116.46 185.261 116.438 184.768C116.498 184.159 116.623 183.558 116.812 182.976C117.139 181.767 117.357 180.531 117.463 179.283C117.531 178.513 118.195 177.894 118.546 177.205C119.197 175.904 119.88 174.554 119.932 173.096C119.977 172.621 119.815 172.039 119.333 171.977Z" fill="#F47A8C"/>
<path d="M117.967 195.385C116.715 194.79 115.801 193.681 114.789 192.731C112.857 190.916 110.495 189.634 108.465 187.933C107.122 186.807 105.918 185.496 104.438 184.553C103.136 183.722 101.66 183.205 100.125 183.04C99.9492 183.01 99.7692 183.019 99.5976 183.066C99.4037 183.153 99.2348 183.287 99.1064 183.457C98.4506 184.196 97.8678 184.996 97.366 185.848C94.7929 190.213 91.1398 193.886 88.1112 197.949C88.0141 198.045 87.9565 198.173 87.9499 198.309C87.9432 198.446 87.9881 198.579 88.0754 198.684L88.6903 199.891C89.0351 200.564 89.5881 201.352 90.3168 201.218C90.6511 201.122 90.9504 200.931 91.1788 200.668L93.9439 198.024L96.8423 195.252C98.5404 193.626 100.268 191.967 101.377 189.891C102.242 191.391 103.778 192.373 104.832 193.749C105.232 194.27 105.557 194.845 105.915 195.398C106.491 196.287 107.141 197.119 107.792 197.949L111.12 202.194C111.54 202.799 112.06 203.327 112.658 203.755C113.446 204.253 114.405 204.387 115.332 204.468C116.581 204.582 117.836 204.627 119.09 204.605C120.046 204.588 121.041 204.526 121.887 204.1C122.733 203.674 123.452 202.799 123.406 201.846C123.355 201.347 123.191 200.865 122.928 200.437C121.754 198.258 120.199 196.436 117.967 195.385Z" fill="#575988"/>
<path d="M121.135 175.012C121.755 175.012 122.258 174.507 122.258 173.884C122.258 173.26 121.755 172.755 121.135 172.755C120.516 172.755 120.013 173.26 120.013 173.884C120.013 174.507 120.516 175.012 121.135 175.012Z" fill="#E8E8F0"/>
<path d="M120.888 173.034C121.142 173.539 121.186 174.123 121.012 174.661C120.838 175.189 120.596 175.692 120.29 176.157C120.027 176.637 119.711 177.086 119.35 177.497C121.083 177.582 122.765 176.902 124.294 176.076C125.527 175.425 126.757 174.596 127.414 173.356C127.218 173.403 127.015 173.408 126.817 173.372C126.62 173.335 126.432 173.258 126.266 173.145C125.935 172.914 125.638 172.638 125.384 172.325L124.515 171.349C124.31 171.135 124.13 170.898 123.979 170.643C123.789 170.297 123.708 169.901 123.748 169.508C123.402 169.87 123.015 170.191 122.596 170.464C121.975 170.871 121.295 171.164 120.667 171.564C120.446 171.707 119.955 171.938 120.082 172.214C120.208 172.491 120.713 172.722 120.888 173.034Z" fill="#FBBEBE"/>
<path opacity="0.1" d="M120.888 173.034C121.142 173.539 121.186 174.123 121.012 174.661C120.838 175.189 120.596 175.692 120.29 176.157C120.027 176.637 119.711 177.086 119.35 177.497C121.083 177.582 122.765 176.902 124.294 176.076C125.527 175.425 126.757 174.596 127.414 173.356C127.218 173.403 127.015 173.408 126.817 173.372C126.62 173.335 126.432 173.258 126.266 173.145C125.935 172.914 125.638 172.638 125.384 172.325L124.515 171.349C124.31 171.135 124.13 170.898 123.979 170.643C123.789 170.297 123.708 169.901 123.748 169.508C123.402 169.87 123.015 170.191 122.596 170.464C121.975 170.871 121.295 171.164 120.667 171.564C120.446 171.707 119.955 171.938 120.082 172.214C120.208 172.491 120.713 172.722 120.888 173.034Z" fill="black"/>
<path d="M120.911 173.203C120.736 173.451 120.642 173.747 120.642 174.051C120.642 174.354 120.736 174.65 120.911 174.898C120.96 174.96 121.145 175.347 121.237 175.35C121.313 175.344 121.384 175.308 121.435 175.25C121.828 174.839 122.195 174.404 122.534 173.948C122.877 173.486 123.373 173.161 123.933 173.031C124.613 172.924 125.267 173.285 125.862 173.63C126.118 173.757 126.341 173.941 126.513 174.17C126.638 174.396 126.713 174.647 126.731 174.905C126.902 176.456 126.967 178.016 126.926 179.576C126.958 180.701 126.884 181.826 126.705 182.936C126.594 183.509 126.428 184.068 126.35 184.647C126.293 185.157 126.27 185.67 126.282 186.183V188.33C126.268 188.723 126.296 189.117 126.367 189.504C126.501 189.966 126.658 190.421 126.838 190.867C126.997 191.398 127.105 191.943 127.163 192.494L127.456 194.716C127.551 195.418 127.619 196.183 127.193 196.745C127.004 197.002 126.75 197.204 126.542 197.458C125.81 198.388 126.054 199.738 125.729 200.893C125.488 201.74 124.996 202.495 124.317 203.056C123.8 203.495 123.13 203.844 122.46 203.707C121.559 203.538 121.015 202.598 120.768 201.71C120.521 200.821 120.443 199.852 119.9 199.107C119.464 198.492 118.79 198.108 118.182 197.669C117.574 197.23 116.975 196.667 116.842 195.926C116.783 195.6 116.819 195.275 116.786 194.95C116.738 194.535 116.579 194.141 116.326 193.809C116.073 193.477 115.735 193.22 115.349 193.063C114.887 192.884 114.314 192.819 114.047 192.412C114.71 191.996 115.192 191.348 115.401 190.594C115.602 189.851 115.712 189.086 115.726 188.317L115.882 185.734C115.95 184.579 115.983 183.434 116.49 182.396C116.718 181.934 117.001 181.499 117.235 181.04C117.549 180.396 117.816 179.731 118.036 179.049C118.403 177.992 118.774 176.931 119.103 175.861C119.234 175.343 119.431 174.843 119.688 174.374C119.991 173.887 120.391 173.301 120.911 173.203Z" fill="#E8E8F0"/>
<path d="M115.177 189.986L115.86 190.008L116.006 188.977C116.025 188.771 116.074 188.568 116.149 188.375C116.263 188.172 116.394 187.979 116.543 187.8C117.216 186.85 117.167 185.587 117.333 184.433C117.554 182.894 118.199 181.45 118.836 180.031L120.163 177.074C120.282 176.831 120.376 176.577 120.446 176.316C120.504 176.028 120.532 175.735 120.528 175.441C120.528 174.986 120.677 173.324 120.687 172.865C120.687 172.696 120.316 172.79 120.238 172.64C120.072 172.315 119.845 173.2 119.532 173.395C119.238 173.62 119.024 173.934 118.921 174.29C118.634 175.035 118.459 175.819 118.192 176.567C117.958 177.333 117.531 178.026 116.953 178.58C116.683 178.821 116.367 179.01 116.11 179.264C115.284 180.08 115.206 181.368 115.177 182.517C115.157 183.229 115.024 189.986 115.177 189.986Z" fill="#ED677B"/>
<path d="M125.017 171.97C124.366 172.23 123.989 172.946 123.804 173.642C123.618 174.338 123.54 175.073 123.182 175.691C122.349 177.142 120.225 177.565 119.636 179.133C119.487 179.663 119.407 180.209 119.399 180.76C119.295 181.882 118.924 182.968 118.813 184.091C118.756 184.964 118.777 185.84 118.875 186.709L119.62 195.567C119.765 196.872 119.689 198.192 119.396 199.471C120.16 199.581 120.939 199.453 121.627 199.103C122.327 198.778 122.964 198.349 123.634 197.978C124.789 197.327 126.064 196.888 127.073 196.026C127.256 195.883 127.413 195.711 127.538 195.515C127.7 195.143 127.809 194.75 127.863 194.347C127.949 194.034 128.058 193.727 128.189 193.43C128.562 192.537 128.888 191.625 129.165 190.698C129.354 190.082 129.503 189.455 129.61 188.821C129.692 188.316 129.734 187.806 129.779 187.298C129.831 186.5 129.99 185.712 130.251 184.956C130.896 183.152 131.262 181.259 131.334 179.345C131.357 179.068 131.338 178.789 131.279 178.518C131.167 178.189 131.016 177.875 130.83 177.581C130.521 176.999 130.336 176.358 130.043 175.769C129.392 174.436 128.224 173.424 127.005 172.575C126.38 172.162 125.694 171.713 125.017 171.97Z" fill="#ED677B"/>
<path d="M109.487 186.423C108.958 186.147 108.48 185.784 108.071 185.35C107.886 185.132 107.746 184.888 107.544 184.673C107.067 184.164 106.447 183.81 105.765 183.658C105.088 183.509 104.396 183.442 103.703 183.46C103.24 183.428 102.775 183.484 102.333 183.626C102.111 183.698 101.911 183.826 101.752 183.996C101.593 184.167 101.479 184.375 101.422 184.602C101.321 185.155 101.683 185.691 102.115 186.043C102.518 186.371 102.991 186.602 103.498 186.716C103.911 186.788 104.328 186.837 104.747 186.863C107.206 187.12 109.402 188.456 111.555 189.676C113.449 190.746 115.379 191.746 117.346 192.679C117.424 192.09 117.456 191.496 117.443 190.903C117.443 190.46 117.411 189.784 116.991 189.523C116.503 189.218 115.69 189.149 115.15 188.967C113.882 188.554 112.644 188.054 111.445 187.471C110.765 187.142 110.114 186.794 109.487 186.423Z" fill="#FBBEBE"/>
<path d="M120.237 172.529C122.657 172.529 124.619 170.556 124.619 168.122C124.619 165.687 122.657 163.714 120.237 163.714C117.817 163.714 115.855 165.687 115.855 168.122C115.855 170.556 117.817 172.529 120.237 172.529Z" fill="#FBBEBE"/>
<path d="M126.269 176.968C125.92 177.458 125.635 177.99 125.42 178.552C124.877 179.668 124.028 180.624 123.605 181.805C123.156 183.031 123.172 184.492 122.303 185.458C122.129 185.604 121.997 185.796 121.923 186.011C121.917 186.145 121.902 186.279 121.877 186.411C121.754 186.762 121.178 186.779 121.071 187.136C121.041 187.241 121.071 187.354 121.018 187.462C120.931 187.693 120.628 187.725 120.423 187.865C119.997 188.155 120.098 188.825 119.773 189.241C119.64 189.396 119.47 189.513 119.278 189.58C119.086 189.647 118.879 189.663 118.68 189.625C118.281 189.541 117.897 189.397 117.541 189.199C117.416 189.128 117.277 189.085 117.134 189.072C116.965 189.076 116.8 189.131 116.663 189.231C115.853 189.745 115.472 190.767 115.479 191.73C115.536 192.693 115.764 193.638 116.152 194.521C116.198 194.673 116.274 194.815 116.376 194.937C116.643 195.22 117.112 195.175 117.469 195.015C117.805 194.817 118.162 194.657 118.533 194.54C119.21 194.417 119.873 194.885 120.56 194.846C121.062 194.77 121.535 194.561 121.929 194.241C122.626 193.818 123.25 193.285 123.777 192.663C124.076 192.27 124.298 191.821 124.561 191.401C124.898 190.886 125.267 190.392 125.667 189.924L128.195 186.831C128.448 186.538 128.676 186.223 128.874 185.891C129.102 185.441 129.28 184.967 129.405 184.479C129.676 183.663 129.851 182.82 129.928 181.964C129.941 181.256 129.879 180.548 129.743 179.853C129.658 179.162 129.475 178.486 129.2 177.846C128.637 176.707 127.3 175.764 126.269 176.968Z" fill="#F47A8C"/>
<path d="M135.071 171.225C135.075 170.444 134.892 169.672 134.54 168.975C134.187 168.278 133.673 167.674 133.041 167.214C133.022 165.827 132.511 164.491 131.599 163.446C130.687 162.4 129.433 161.712 128.061 161.505C127.796 160.191 127.075 159.012 126.026 158.177C124.977 157.342 123.667 156.904 122.327 156.941C120.987 156.977 119.703 157.485 118.7 158.375C117.698 159.265 117.042 160.481 116.848 161.808C115.026 161.398 113.361 161.931 113.058 163.053C112.733 164.228 114.034 165.601 115.96 166.121C116.563 166.292 117.192 166.354 117.817 166.307C118.265 166.964 118.845 167.521 119.521 167.941C120.197 168.361 120.953 168.635 121.74 168.746C121.972 169.807 122.495 170.783 123.251 171.563C124.006 172.343 124.965 172.896 126.018 173.161C126.31 173.865 126.762 174.491 127.339 174.989C127.339 175.125 127.316 175.265 127.316 175.408C127.295 175.909 127.376 176.408 127.552 176.876C127.729 177.344 127.999 177.772 128.346 178.133C128.692 178.494 129.108 178.782 129.568 178.978C130.029 179.174 130.524 179.276 131.025 179.276C131.525 179.276 132.02 179.174 132.481 178.978C132.941 178.782 133.357 178.494 133.703 178.133C134.05 177.772 134.32 177.344 134.497 176.876C134.674 176.408 134.754 175.909 134.733 175.408C134.733 174.847 134.612 174.292 134.378 173.782C134.836 173.008 135.075 172.124 135.071 171.225Z" fill="#85555C"/>
<path opacity="0.1" d="M114.295 163.278C114.597 162.156 116.246 161.622 118.084 162.032C118.298 160.685 118.981 159.457 120.013 158.564C121.044 157.671 122.358 157.171 123.722 157.153C123.849 157.153 123.976 157.153 124.099 157.153C123.572 156.992 123.024 156.911 122.473 156.912C121.109 156.931 119.795 157.43 118.763 158.323C117.732 159.216 117.049 160.444 116.835 161.792C115.014 161.382 113.348 161.915 113.045 163.038C112.72 164.212 114.021 165.585 115.947 166.105C116.305 166.204 116.673 166.268 117.043 166.294C115.215 165.76 113.986 164.427 114.295 163.278Z" fill="black"/>
<path opacity="0.1" d="M128.553 175.636C128.553 175.493 128.553 175.353 128.576 175.214C127.998 174.717 127.546 174.092 127.255 173.389C126.202 173.121 125.245 172.567 124.489 171.787C123.734 171.006 123.21 170.032 122.977 168.971C122.189 168.861 121.433 168.587 120.757 168.166C120.082 167.746 119.501 167.189 119.054 166.531C118.69 166.56 118.323 166.55 117.961 166.502C118.411 167.108 118.976 167.619 119.625 168.004C120.274 168.389 120.993 168.642 121.741 168.747C121.972 169.808 122.495 170.783 123.251 171.563C124.007 172.343 124.965 172.896 126.019 173.161C126.31 173.865 126.762 174.491 127.339 174.989C127.339 175.126 127.317 175.266 127.317 175.409C127.3 176.406 127.679 177.369 128.37 178.089C129.061 178.808 130.008 179.224 131.005 179.247C130.278 178.967 129.653 178.47 129.215 177.825C128.776 177.18 128.545 176.416 128.553 175.636Z" fill="black"/>
<path d="M122.243 169.737C122.54 169.511 122.537 169.006 122.236 168.61C121.935 168.214 121.45 168.076 121.153 168.302C120.855 168.528 120.858 169.032 121.159 169.428C121.46 169.825 121.945 169.963 122.243 169.737Z" fill="#FBBEBE"/>
</g>
<defs>
<clipPath id="clip0">
<rect width="287.241" height="216" fill="white"/>
</clipPath>
</defs>
</svg>
