<svg width="355" height="270" viewBox="0 0 355 270" fill="none" xmlns="http://www.w3.org/2000/svg">
<path d="M327.772 198.359C330.108 186.931 301.511 171.436 263.9 163.751C226.289 156.065 193.905 159.099 191.569 170.527C189.234 181.955 217.83 197.45 255.442 205.136C293.053 212.821 325.436 209.787 327.772 198.359Z" fill="#E1EEFA"/>
<path d="M248.598 241.372C248.459 227.52 211.389 216.664 165.801 217.125C120.214 217.586 83.3703 229.188 83.5098 243.04C83.6492 256.892 120.718 267.748 166.306 267.287C211.894 266.826 248.738 255.224 248.598 241.372Z" fill="#E1EEFA"/>
<path d="M251.818 125.133C251.818 125.133 255.515 106.988 269.63 108.669C269.63 108.669 279.385 109.338 281.391 115.724V129.837L251.818 125.133Z" fill="#007EFF"/>
<path d="M329.118 131.857L203.422 121.437L187.291 124.798L188.299 147.313L189.398 147.446L190.65 181.256L313.992 203.433L327.102 192.343V155.691L328.78 154.706L329.118 131.857Z" fill="#007EFF"/>
<path opacity="0.05" d="M329.287 131.857L328.949 154.707L315.338 161.093L315.168 137.232L329.287 131.857Z" fill="black"/>
<path opacity="0.05" d="M327.102 155.714L327.268 191.672L314.161 202.762L315.003 161.091L327.102 155.714Z" fill="black"/>
<path opacity="0.05" d="M189.566 148.793L315.103 164.109L315.168 161.203L189.472 147.648L189.566 148.793Z" fill="black"/>
<path opacity="0.05" d="M327.102 157.034V155.714L314.665 161.202V164.115L327.102 157.034Z" fill="black"/>
<path d="M187.122 124.798L203.253 121.437L328.949 131.857L314.834 137.231L187.122 124.798Z" fill="#9ECAF2"/>
<path d="M234.129 132.774C233.427 126.603 230.647 120.715 230.647 120.715L230.858 118.634C230.858 118.634 230.904 117.594 230.836 116.033C230.843 115.059 230.971 114.089 231.216 113.146C231.785 111.342 230.504 109.124 230.361 108.92C230.218 108.715 230.432 104.758 229.151 102.817C227.87 100.876 219.338 97.2672 219.338 97.2672C219.338 97.2672 218.88 96.3081 218.233 95.1865L218.291 95.0727C217.762 94.1124 217.105 93.2277 216.34 92.4424C215.817 91.8832 215.313 91.5646 214.906 91.7206C214.741 91.181 214.615 90.6301 214.529 90.0723C214.614 90.095 214.701 90.1178 214.786 90.134C215.138 90.2157 215.503 90.2246 215.859 90.16C216.652 89.9812 217.179 89.2692 217.621 88.5995C219.826 85.2507 221.725 81.5768 222.112 77.6135C222.216 76.8046 222.177 75.9838 221.998 75.1881C221.815 74.5696 221.56 73.9748 221.237 73.4162C220.667 72.2701 219.945 71.206 219.091 70.2528C217.572 68.6531 215.478 67.6745 213.326 67.0958C210.901 66.4438 208.375 66.2551 205.88 66.5398C205.229 66.6146 204.579 66.7219 203.929 66.7642C203.104 66.8005 202.278 66.7864 201.454 66.7219L197.198 66.4748L197.179 66.4098L196.47 66.3675C196.19 66.9235 196.47 67.5835 196.818 68.1037C197.166 68.6239 197.566 69.1668 197.536 69.7813C197.507 70.3958 197.062 70.89 196.714 71.4069C196.366 71.9239 196.102 72.6001 196.45 73.1073C196.499 73.1775 196.557 73.2409 196.623 73.2959C196.99 73.6763 197.631 73.7186 198.187 73.7121H198.284C196.884 75.5561 196.127 77.8082 196.128 80.1235C196.138 82.1021 196.692 84.0399 197.729 85.7247C198.767 87.4096 200.248 88.7764 202.01 89.6756C202.072 89.8869 202.134 90.1048 202.192 90.3259C202.837 92.6095 203.068 94.99 202.875 97.355L202.801 97.5176L202.755 97.3453C202.755 97.3453 197.741 100.746 196.252 101.647C194.763 102.547 193.267 105.6 193.195 106.432C193.124 107.265 190.776 119.818 190.776 119.818C190.299 121.082 189.906 122.377 189.599 123.693L186.604 126.324C186.604 126.324 180.426 126.879 178.638 126.463L178.69 126.808C177.113 126.448 175.507 126.23 173.891 126.158C173.008 126.044 172.111 126.164 171.29 126.506L171.228 126.535L171.179 126.558C170.238 126.686 169.318 126.944 168.448 127.325C168.344 127.367 168.249 127.409 168.158 127.452L168.178 127.026L161.493 126.681L158.078 125.989C158.078 125.989 156.869 125.013 156.157 125.156C155.445 125.299 153.952 124.324 153.952 124.324C153.612 124.057 153.243 123.828 152.853 123.641C152.739 122.854 152.668 122.377 152.668 122.377C152.668 122.377 150.011 111.836 148.021 105.639C146.688 101.5 144.77 99.4618 143.638 98.5742C143.134 97.6964 142.803 97.1307 142.803 97.1307C142.585 96.3699 141.388 94.6565 141.082 94.6142C141.034 94.5362 140.998 94.4972 140.978 94.4972C140.913 94.4902 140.847 94.5003 140.787 94.5265C140.227 91.7434 139.902 88.2548 140.757 85.2149C141.928 84.253 142.871 83.0441 143.52 81.6749C144.169 80.3057 144.507 78.81 144.51 77.2949C144.51 77.2494 144.51 77.2039 144.51 77.1584C144.51 77.1129 144.51 77.0641 144.51 77.0186C144.509 74.6024 143.653 72.2643 142.094 70.4186L141.983 70.295C142.013 70.2741 142.041 70.2513 142.068 70.2267C142.312 70.0286 142.498 69.768 142.606 69.4727C142.715 69.1773 142.741 68.8582 142.682 68.5491C142.536 67.9249 142.048 67.4339 141.798 66.8422C141.647 66.3867 141.527 65.9219 141.437 65.4507C141.245 64.7815 140.894 64.1689 140.413 63.6658L140.461 63.7958C139.187 62.362 136.995 61.65 135.022 61.9686C133.555 62.2027 132.189 62.8855 130.716 63.0968C129.66 63.2463 128.583 63.1488 127.52 63.2561C126.534 63.3575 125.573 63.635 124.685 64.0754C124.453 64.1741 124.247 64.3255 124.083 64.5176C123.932 64.7749 123.831 65.0583 123.784 65.3531C123.423 66.6699 122.279 67.6095 121.449 68.7084C120.502 69.9639 119.954 71.4749 119.876 73.0456C119.843 73.4447 119.882 73.8465 119.99 74.2323C120.061 74.4631 120.172 74.6809 120.224 74.915C120.386 75.6303 120.012 76.3423 119.83 77.0511C119.601 77.9552 119.682 78.9102 120.061 79.7626C121.345 82.6367 125.563 83.5958 126.441 86.6129C127.112 86.9217 127.822 87.1403 128.551 87.2632C128.609 87.5623 128.661 87.8647 128.704 88.1703C128.684 88.1786 128.665 88.1896 128.648 88.2028C127.51 89.3115 127.228 91.454 127.228 91.454L127.091 91.5646C126.626 91.9482 125.036 93.2357 123.599 94.2273C121.892 95.4075 119.047 99.361 117.057 100.541C115.067 101.721 113.428 108.994 113.857 111.638C114.286 114.281 116.062 121.694 115.35 124.399C114.637 127.104 116.416 139.449 116.416 139.449C117.61 139.676 118.777 140.022 119.902 140.483L119.866 141.022L119.759 142.648C119.759 142.648 116.536 154.3 117.769 163.271C119.001 172.241 117.2 173.164 117.2 173.164C117.2 173.164 117.577 177.14 116.631 178.529C115.684 179.917 115.493 182.966 115.493 182.966C115.493 182.966 115.398 189.81 115.587 191.745C115.776 193.679 115.87 197.204 115.206 198.036C114.543 198.868 113.311 204.321 113.405 205.985C113.499 207.65 111.035 211.444 112.361 216.344C113.688 221.243 108.459 221.338 108.459 221.338C108.459 221.338 109.126 228.815 110.547 230.955L110.755 231.26C110.719 231.384 110.684 231.514 110.645 231.654C110.108 233.604 109.373 236.683 109.884 237.428C110.641 238.54 111.022 238.351 111.022 238.351L111.305 243.345C111.305 243.345 116.995 248.154 121.358 247.972C125.722 247.79 124.867 243.345 124.867 243.345L121.15 233.708L121.024 233.383L125.153 225.58C125.153 225.58 126.291 222.16 126.574 220.957C126.857 219.754 128.401 215.492 128.401 215.492C128.401 215.492 132.303 206.245 132.385 205.133C132.466 204.021 132.765 198.016 133.523 196.81C134.28 195.604 136.368 188.682 136.368 188.682L136.42 188.728C136.774 189.076 137.027 189.513 137.152 189.993C137.277 190.474 137.269 190.979 137.129 191.455C136.651 193.211 136.937 196.817 136.937 196.817C136.937 196.817 136.748 199.87 136.368 201.443C135.987 203.017 135.896 215.869 136.56 218.919C137.09 221.36 137.073 225.932 137.047 227.661C136.602 229.498 136.212 231.78 136.937 232.05C138.172 232.515 144.432 232.421 144.432 232.421C144.432 232.421 147.085 231.494 150.691 234.733C154.297 237.971 165.388 233.809 165.388 233.809C165.388 233.809 168.802 232.883 162.068 230.204C157.37 228.334 154.336 227.089 152.352 225.756C152.398 225.668 152.447 225.58 152.489 225.486C152.489 225.486 149.738 222.885 152.014 218.275C154.29 213.665 154.196 209.766 154.196 209.766L154.576 194.229L153.438 173.603L152.557 151.956L152.713 151.904C152.863 155.884 153.64 165.358 157.708 163.521C162.829 161.209 158.465 155.198 158.465 155.198L156.167 150.717L156.853 150.483L154.281 142.173C154.034 140.551 154.001 138.904 154.183 137.274C154.234 136.32 154.214 135.364 154.125 134.413C157.493 133.824 160.719 133.2 161.297 133.343C161.98 133.509 165.801 133.541 167.303 133.548C166.812 133.931 166.419 134.312 166.419 134.312L172.535 138.428C172.535 138.428 174.609 137.293 175.042 136.09C175.467 135.983 175.86 135.773 176.186 135.479C176.251 136.9 176.629 138.438 177.942 138.473C178.271 138.48 178.597 138.416 178.898 138.285L188.9 136.305L188.042 141.666L188.64 142.729C188.338 147.252 187.99 152.054 187.684 156.277L187.544 157.2L187.616 157.217C187.141 163.719 186.761 168.645 186.761 168.645C187.321 167.577 188.19 166.704 189.255 166.138L189.32 175.788C189.32 175.788 189.82 191.046 189.82 193.127C189.82 195.207 189.889 199.853 189.889 199.853C189.889 199.853 190.958 205.54 191.596 207.412C192.233 209.285 192.734 217.816 192.734 217.816C192.734 217.816 194.229 220.174 193.589 221.068C192.948 221.962 196.08 223.909 196.08 223.909C196.08 223.909 194.086 226.614 193.943 228.419C193.927 228.627 194.132 228.848 194.503 229.069C194.385 229.163 194.265 229.258 194.132 229.349C193.208 229.966 191.856 230.395 189.82 230.22C184.27 229.732 180.358 234.866 183.772 235.906C187.186 236.947 197.429 237.155 197.429 237.155C197.429 237.155 200.531 235.22 202.957 236.092C202.921 238.127 203.022 239.993 203.038 240.24L203.009 240.263C201.558 241.563 198.782 243.8 196.07 244.714C192.168 246.031 191.303 251.372 196.353 252.065C201.402 252.757 208.8 251.233 208.8 251.233C208.8 251.233 212.64 248.391 215.556 247.767C218.473 247.143 220.964 245.754 220.466 244.09C220.141 243.026 219.306 240.24 218.74 238.367C218.707 238.255 218.675 238.146 218.642 238.042C218.73 237.847 218.818 237.646 218.899 237.438C218.899 237.438 217.407 229.67 218.616 227.729C219.826 225.788 219.185 206.366 219.185 206.366C219.185 206.366 217.12 201.443 218.19 198.462C219.26 195.48 216.483 191.247 216.483 191.247C216.483 191.247 216.786 182.765 217.598 178.038C217.635 177.836 217.671 177.641 217.706 177.452C219.067 177.048 220.393 176.536 221.673 175.921C221.673 175.921 222.385 165.237 222.811 162.812C222.853 162.584 222.912 162.217 222.983 161.739L223.308 160.026L223.692 158.075L224.993 151.426L227.34 148.39L233.388 142.212C233.388 142.212 234.842 138.948 234.129 132.774ZM140.861 94.6272L140.816 94.6597C140.809 94.6363 140.803 94.6124 140.8 94.5882C140.818 94.6038 140.839 94.6169 140.861 94.6272ZM200.615 102.199L200.381 102.71L201.237 101.858L200.076 103.158L200.466 102.339L200.615 102.199ZM194.841 114.131C194.616 114.726 194.376 115.37 194.125 116.04L194.584 114.671L194.841 114.131Z" fill="url(#paint0_linear)"/>
<path d="M176.18 133.583C176.18 133.583 175.383 138.886 177.773 138.954C180.163 139.022 181.759 134.864 181.759 134.864L180.784 131.538L176.18 133.583Z" fill="#585B8A"/>
<path opacity="0.2" d="M176.18 133.583C176.18 133.583 175.383 138.886 177.773 138.954C180.163 139.022 181.759 134.864 181.759 134.864L180.784 131.538L176.18 133.583Z" fill="black"/>
<path d="M122.65 248.364C118.397 248.549 112.85 243.744 112.85 243.744L112.574 238.753C112.574 238.753 112.206 238.939 111.465 237.83C110.967 237.086 111.683 234 112.206 232.059C112.46 231.11 112.668 230.434 112.668 230.434L122 232.931L122.445 234.111L126.068 243.741C126.068 243.741 126.9 248.179 122.65 248.364Z" fill="#636992"/>
<path d="M165.528 234.229C165.528 234.229 154.716 238.388 151.221 235.153C147.725 231.918 145.121 232.841 145.121 232.841C145.121 232.841 139.021 232.935 137.818 232.47C137.109 232.201 137.493 229.889 137.935 228.049C138.234 226.777 138.559 225.727 138.559 225.727C138.559 225.727 149.185 222.122 150.85 224.339C151.35 224.991 151.948 225.561 152.622 226.03C154.547 227.421 157.555 228.683 162.312 230.624C168.854 233.303 165.528 234.229 165.528 234.229Z" fill="#636992"/>
<path d="M155.826 149.765L158.782 155.679C158.782 155.679 163.035 161.687 158.043 163.995C153.052 166.304 153.147 150.691 153.147 150.691L155.826 149.765Z" fill="#FFD6D6"/>
<path d="M143.44 98.4805C143.44 98.4805 146.676 99.9598 148.617 106.15C150.558 112.34 153.146 122.878 153.146 122.878C153.146 122.878 154.902 134.797 154.623 137.755C154.445 139.385 154.476 141.03 154.717 142.652L157.211 150.968L152.22 152.724L144.549 123.339L143.44 98.4805Z" fill="#DCE6F2"/>
<path opacity="0.05" d="M143.44 98.4805C143.44 98.4805 146.676 99.9598 148.617 106.15C150.558 112.34 153.146 122.878 153.146 122.878C153.146 122.878 154.902 134.797 154.623 137.755C154.445 139.385 154.476 141.03 154.717 142.652L157.211 150.968L152.22 152.724L144.549 123.339L143.44 98.4805Z" fill="black"/>
<path opacity="0.1" d="M121.998 232.933L122.444 234.113L121.898 235.157C119.771 236.08 114.503 235.342 114.503 235.342C114.503 235.342 113.528 234.104 112.195 232.065C112.448 231.116 112.657 230.439 112.657 230.439L121.998 232.933Z" fill="black"/>
<path opacity="0.1" d="M152.96 226.465C150.265 232.571 141.102 230.305 138.556 229.541C138.136 229.414 137.905 229.33 137.905 229.33C137.905 229.33 137.922 228.832 137.928 228.049C138.227 226.777 138.552 225.727 138.552 225.727C138.552 225.727 149.178 222.122 150.843 224.339C151.343 224.991 151.941 225.561 152.615 226.03C152.717 226.185 152.833 226.331 152.96 226.465Z" fill="black"/>
<path d="M152.497 218.704C150.279 223.321 152.962 225.912 152.962 225.912C150.266 232.015 141.103 229.752 138.557 228.984C138.138 228.861 137.907 228.776 137.907 228.776C137.907 228.776 138.092 222.397 137.445 219.348C136.798 216.298 136.889 203.456 137.26 201.885C137.631 200.315 137.813 197.262 137.813 197.262C137.813 197.262 137.536 193.66 137.998 191.904C138.137 191.43 138.146 190.927 138.025 190.448C137.904 189.969 137.657 189.531 137.309 189.18L137.26 189.131C137.26 189.131 135.228 196.063 134.486 197.259C133.745 198.455 133.472 204.467 133.378 205.576C133.283 206.684 129.495 215.928 129.495 215.928C129.495 215.928 128.019 220.177 127.743 221.377C127.466 222.576 126.354 226 126.354 226L121.9 234.596C119.773 235.519 114.505 234.781 114.505 234.781C114.505 234.781 113.491 233.481 112.103 231.361C110.714 229.241 110.07 221.754 110.07 221.754C110.07 221.754 115.153 221.659 113.858 216.763C112.564 211.867 114.967 208.076 114.876 206.411C114.785 204.747 115.985 199.297 116.632 198.465C117.279 197.633 117.185 194.122 116.999 192.181C116.814 190.24 116.908 183.402 116.908 183.402C116.908 183.402 117.094 180.353 118.017 178.968C118.941 177.582 118.573 173.606 118.573 173.606C118.573 173.606 120.326 172.683 119.126 163.719C117.926 154.756 121.077 143.113 121.077 143.113L121.184 141.487L121.353 138.854C121.353 138.854 147.785 137.189 149.912 139.221C150.468 139.785 150.924 140.439 151.261 141.156C151.989 142.72 152.503 144.374 152.789 146.075L153.898 174.074L155.007 194.681L154.636 210.205C154.636 210.205 154.718 214.081 152.497 218.704Z" fill="#565988"/>
<path opacity="0.1" d="M144.661 163.443L141.887 223.507L138.557 228.982C138.138 228.858 137.907 228.774 137.907 228.774C137.907 228.774 138.092 222.395 137.445 219.345C136.798 216.295 136.889 203.453 137.26 201.883C137.631 200.312 137.813 197.259 137.813 197.259C137.813 197.259 137.536 193.657 137.998 191.901C138.137 191.427 138.146 190.924 138.025 190.445C137.904 189.966 137.657 189.528 137.309 189.177L137.354 188.852L144.661 163.443Z" fill="black"/>
<path opacity="0.1" d="M114.79 227.944C114.79 227.944 121.999 225.08 123.108 225.993C124.216 226.907 114.608 228.302 114.608 228.302L114.79 227.944Z" fill="black"/>
<path opacity="0.1" d="M150.373 220.364C150.096 220.459 143.073 222.965 143.72 225.631C144.367 228.297 150.373 220.364 150.373 220.364Z" fill="black"/>
<path d="M128.424 83.6509C128.424 83.6509 130.778 89.334 129.533 92.2471C128.287 95.1602 142.978 100.148 142.978 100.148C142.978 100.148 138.683 89.0577 142.841 82.8186C147 76.5794 128.424 83.6509 128.424 83.6509Z" fill="#FFD6D6"/>
<path d="M214.441 248.179C211.599 248.804 207.857 251.645 207.857 251.645C207.857 251.645 200.648 253.17 195.725 252.477C190.802 251.785 191.638 246.446 195.449 245.13C198.092 244.219 200.801 241.973 202.215 240.685C202.84 240.11 203.21 239.71 203.21 239.71L217.007 236.937C217.007 236.937 217.231 237.707 217.543 238.77C218.096 240.646 218.912 243.429 219.224 244.489C219.709 246.17 217.283 247.555 214.441 248.179Z" fill="#505484"/>
<path d="M210.907 237.507C210.907 237.507 205.083 238.131 202.657 236.746C200.232 235.361 196.766 237.578 196.766 237.578C196.766 237.578 186.783 237.37 183.457 236.33C180.131 235.289 183.941 230.152 189.349 230.647C191.319 230.825 192.652 230.393 193.553 229.775C194.494 229.13 195.15 228.148 195.384 227.031L207.089 227.724L208.715 231.872L210.907 237.507Z" fill="#505484"/>
<path opacity="0.1" d="M208.894 233.765C208.894 233.765 195.289 231.541 193.553 229.775C194.494 229.13 195.149 228.148 195.383 227.031L207.089 227.724L208.715 231.872L208.894 233.765Z" fill="black"/>
<path d="M188.724 155.935L188.864 176.239C188.864 176.239 189.348 191.487 189.348 193.568C189.348 195.649 189.417 200.288 189.417 200.288C189.417 200.288 190.457 205.971 191.082 207.844C191.706 209.717 192.19 218.248 192.19 218.248C192.19 218.248 193.647 220.605 193.023 221.499C192.398 222.393 195.448 224.341 195.448 224.341C195.448 224.341 193.497 227.046 193.371 228.847C193.244 230.648 208.894 233.207 208.894 233.207L202.797 170.695L197.942 155.034L188.724 155.935Z" fill="#575988"/>
<path opacity="0.1" d="M188.724 155.935L188.864 176.239C188.864 176.239 189.348 191.487 189.348 193.568C189.348 195.649 189.417 200.288 189.417 200.288C189.417 200.288 190.457 205.971 191.082 207.844C191.706 209.717 192.19 218.248 192.19 218.248C192.19 218.248 193.647 220.605 193.023 221.499C192.398 222.393 195.448 224.341 195.448 224.341C195.448 224.341 193.497 227.046 193.371 228.847C193.244 230.648 208.894 233.207 208.894 233.207L202.797 170.695L197.942 155.034L188.724 155.935Z" fill="black"/>
<path opacity="0.1" d="M217.544 238.786C213.014 249.584 202.242 241.251 202.242 241.251C202.242 241.251 202.242 241.043 202.216 240.685C202.84 240.11 203.211 239.71 203.211 239.71L217.007 236.937C217.007 236.937 217.232 237.723 217.544 238.786Z" fill="black"/>
<path d="M217.699 237.853C213.261 249.233 202.241 240.695 202.241 240.695C202.241 240.695 201.893 234.804 202.589 232.102C203.285 229.4 201.825 221.288 201.825 221.288C201.825 221.288 200.992 214.08 200.232 212.419C199.471 210.757 199.539 207.428 199.539 207.152C199.539 206.876 199.815 204.655 199.191 203.13C198.567 201.605 198.216 197.863 198.216 197.863C198.216 197.863 198.216 192.596 197.591 189.478L195.442 178.749L191.56 156.777L192.772 156.569L214.503 152.759C214.503 152.759 218.593 173.567 217.205 175.699C216.906 176.168 216.642 177.192 216.424 178.512C215.631 183.233 215.335 191.709 215.335 191.709C215.335 191.709 218.037 195.935 217 198.917C215.963 201.898 217.975 206.817 217.975 206.817C217.975 206.817 218.6 226.224 217.419 228.165C216.239 230.106 217.699 237.853 217.699 237.853Z" fill="#575988"/>
<path d="M215.618 95.9846C215.618 95.9846 195.933 109.845 200.368 102.913C202.758 99.1805 202.319 94.4272 201.383 90.8379C200.909 89.0122 200.256 87.2381 199.432 85.5416C199.432 85.5416 216.158 78.4279 213.94 84.8036C213.42 86.2889 213.199 87.8623 213.29 89.4333C213.423 91.7949 214.231 94.0687 215.618 95.9846Z" fill="#FBBEBE"/>
<path d="M180.176 127.728C180.176 127.728 171.859 125.325 170.474 127.682C169.088 130.04 170.89 135.212 173.4 136.045C175.91 136.877 181.672 133.226 181.672 133.226L180.176 127.728Z" fill="#FBBEBE"/>
<path d="M189.697 123.641L186.231 126.83C186.231 126.83 180.199 127.383 178.466 126.967C178.466 126.967 180.063 137.64 177.773 138.957L191.775 136.116L189.697 123.641Z" fill="#585B8A"/>
<path opacity="0.1" d="M189.697 123.641L186.231 126.83C186.231 126.83 180.199 127.383 178.466 126.967C178.466 126.967 180.063 137.64 177.773 138.957L191.775 136.116L189.697 123.641Z" fill="black"/>
<path opacity="0.1" d="M145.196 77.8288C145.196 80.5881 144.1 83.2344 142.149 85.1855C140.197 87.1366 137.551 88.2327 134.791 88.2327C129.452 85.6675 124.386 83.5802 124.386 77.8288C124.331 76.429 124.559 75.0325 125.056 73.7229C125.554 72.4133 126.311 71.2177 127.282 70.2078C128.252 69.1978 129.417 68.3943 130.706 67.8454C131.995 67.2966 133.382 67.0137 134.783 67.0137C136.184 67.0137 137.571 67.2966 138.86 67.8454C140.149 68.3943 141.313 69.1978 142.284 70.2078C143.255 71.2177 144.012 72.4133 144.51 73.7229C145.007 75.0325 145.235 76.429 145.18 77.8288H145.196Z" fill="black"/>
<path d="M145.195 77.5468C145.197 79.9936 144.334 82.3623 142.76 84.2353C141.185 86.1083 139 87.3652 136.589 87.7843C134.178 88.2035 131.697 87.758 129.582 86.5264C127.468 85.2948 125.856 83.3562 125.032 81.0525C124.207 78.7488 124.223 76.228 125.075 73.9346C125.928 71.6412 127.563 69.7225 129.693 68.5169C131.822 67.3114 134.309 66.8964 136.714 67.3451C139.12 67.7938 141.29 69.0774 142.841 70.9696C144.361 72.8252 145.192 75.1486 145.195 77.5468Z" fill="#FFD6D6"/>
<path opacity="0.1" d="M151.26 141.164C150.231 141.804 149.154 142.362 148.038 142.836C148.038 142.836 142.771 142.072 142.01 142.972C141.249 143.873 134.531 144.221 134.531 144.221C134.531 144.221 124.272 143.736 122.747 142.419C122.276 142.038 121.751 141.727 121.19 141.496L121.359 138.863C121.359 138.863 147.791 137.198 149.918 139.23C150.471 139.795 150.925 140.449 151.26 141.164Z" fill="black"/>
<path d="M152.545 139.302C152.336 140.479 148.038 142.28 148.038 142.28C148.038 142.28 142.77 141.519 142.009 142.42C141.249 143.32 134.531 143.668 134.531 143.668C134.531 143.668 124.272 143.18 122.747 141.864C121.222 140.547 117.824 139.913 117.824 139.913C117.824 139.913 116.091 127.578 116.787 124.876C117.483 122.174 115.747 114.755 115.33 112.121C114.914 109.488 116.507 102.212 118.449 101.035C120.39 99.8576 123.163 95.9041 124.825 94.7272C126.226 93.7356 127.774 92.4513 128.226 92.0644L128.359 91.9539C128.359 91.9539 128.639 89.8048 129.748 88.7027C130.857 87.6005 141.044 95.7026 141.044 95.7026C141.044 95.7026 141.115 96.3268 141.808 95.1499C141.964 94.8865 143.307 96.8242 143.541 97.6435C143.541 97.6435 149.085 107.348 149.433 109.348C149.781 111.347 151.234 117.873 151.511 119.466C151.582 119.875 151.699 121.313 151.836 123.237C151.862 123.614 151.884 124.014 151.914 124.43C152.119 127.623 152.34 131.7 152.473 134.782C152.473 135.133 152.502 135.472 152.512 135.797C152.582 136.964 152.593 138.134 152.545 139.302Z" fill="#DCE6F2"/>
<path opacity="0.1" d="M117.347 114.28C117.347 114.28 121.158 118.923 122.406 118.923C123.655 118.923 117.347 114.28 117.347 114.28Z" fill="black"/>
<path opacity="0.1" d="M125.374 124.262C125.374 124.262 119.134 131.054 119.967 132.302C120.799 133.55 125.374 124.262 125.374 124.262Z" fill="black"/>
<path opacity="0.1" d="M120.8 137.777C120.8 137.777 127.953 129.945 128.278 127.243L120.8 137.777Z" fill="black"/>
<path opacity="0.1" d="M129.81 138.331C129.81 138.331 138.059 133.964 138.751 130.499C139.444 127.033 129.81 138.331 129.81 138.331Z" fill="black"/>
<path opacity="0.1" d="M140.277 96.1949L139.132 98.9649L141.038 99.8655L142.911 105.1C142.911 105.1 148.074 115.426 147.866 120.797C147.658 126.168 148.802 134.241 148.802 134.241L151.781 133.688L150.376 117.89C150.158 115.444 149.545 113.05 148.562 110.799C146.182 105.35 141.753 95.291 141.473 95.291C141.093 95.291 141.36 95.4308 141.36 95.4308L140.277 96.1949Z" fill="black"/>
<path d="M140.553 95.9152L139.409 98.6885L141.317 99.5891L143.187 104.824C143.187 104.824 148.35 115.15 148.142 120.521C147.934 125.892 149.079 133.964 149.079 133.964L152.061 133.412L150.653 117.614C150.436 115.168 149.825 112.773 148.841 110.523C146.461 105.071 142.033 95.0146 141.756 95.0146C141.373 95.0146 141.639 95.1544 141.639 95.1544L140.553 95.9152Z" fill="#575989"/>
<path d="M174.307 136.647C172.857 136.536 169.378 134.778 167.996 134.046L167.411 133.721L167.482 128.353C167.824 128.152 168.178 127.973 168.542 127.817C170.389 127.01 174.177 125.915 176.076 129.442C178.638 134.173 176.144 136.771 174.307 136.647Z" fill="#FFD6D6"/>
<path opacity="0.1" d="M142.841 70.9704C142.693 71.0637 142.529 71.1308 142.357 71.1687C141.151 71.4321 139.779 70.3949 138.745 71.0614C138.114 71.4711 137.967 72.3197 137.883 73.0675C137.735 74.368 137.588 75.6598 137.441 76.9429C137.41 77.3997 137.313 77.8498 137.154 78.2792C136.644 79.4464 135.243 79.9958 133.965 79.9763C133.464 80.012 132.97 79.8483 132.589 79.5211C132.365 79.2936 132.245 78.975 131.997 78.7669C130.372 77.4046 129.877 80.7436 130.307 81.693C130.996 83.2438 133.444 84.7394 132.417 86.7096C132.244 87.0298 131.982 87.293 131.663 87.4672C130.114 86.9823 128.701 86.1421 127.535 85.0136C126.369 83.8851 125.483 82.4997 124.949 80.968C124.414 79.4362 124.245 77.8007 124.455 76.192C124.665 74.5832 125.248 73.0459 126.158 71.7028C127.068 70.3597 128.28 69.248 129.697 68.4566C131.113 67.6652 132.695 67.2159 134.316 67.1448C135.937 67.0736 137.552 67.3825 139.032 68.0468C140.513 68.711 141.817 69.7122 142.841 70.9704Z" fill="black"/>
<path d="M131.723 78.7549C131.966 78.9598 132.09 79.2784 132.314 79.506C132.695 79.8329 133.189 79.9964 133.69 79.9611C134.968 79.9806 136.369 79.4344 136.876 78.2607C137.038 77.8331 137.136 77.3839 137.166 76.9277L137.608 73.0523C137.692 72.3045 137.835 71.4559 138.47 71.0463C139.504 70.396 140.876 71.4169 142.082 71.1536C142.517 71.043 142.893 70.7711 143.135 70.3931C143.376 70.0151 143.465 69.5593 143.383 69.1183C143.243 68.4973 142.768 68.0064 142.524 67.4146C142.376 66.96 142.258 66.4962 142.17 66.0264C141.497 63.5034 138.535 62.0859 135.959 62.5085C134.529 62.7459 133.199 63.4286 131.765 63.6367C130.737 63.7863 129.687 63.6887 128.65 63.7993C127.686 63.8987 126.749 64.1754 125.886 64.6153C125.659 64.7156 125.459 64.8669 125.301 65.0575C125.153 65.3149 125.054 65.5969 125.008 65.8898C124.66 67.1903 123.542 68.1494 122.732 69.2451C121.806 70.5057 121.27 72.0103 121.191 73.5725C121.159 73.9715 121.196 74.3729 121.301 74.7592C121.37 74.9868 121.477 75.2078 121.529 75.4419C121.688 76.1539 121.324 76.866 121.145 77.5747C120.923 78.4792 121.003 79.4315 121.373 80.2863C122.621 83.1571 126.735 84.1162 127.59 87.1301C128.349 87.4942 129.169 87.7146 130.009 87.7804C130.848 87.7966 131.752 87.4357 132.142 86.6912C133.166 84.7404 130.721 83.2254 130.032 81.6778C129.599 80.7252 130.084 77.3894 131.723 78.7549Z" fill="#353045"/>
<path opacity="0.1" d="M213.957 84.8036C213.437 86.2889 213.216 87.8623 213.307 89.4333C212.806 89.8593 212.26 88.5848 211.681 88.9132C210.094 89.83 208.26 92.0116 206.296 92.0116C204.593 92.0127 202.914 91.6105 201.396 90.8379C200.923 89.0122 200.269 87.2381 199.445 85.5416C199.445 85.5416 216.175 78.4279 213.957 84.8036Z" fill="black"/>
<path d="M217.097 80.6456C217.097 82.7844 216.462 84.875 215.274 86.6533C214.086 88.4316 212.397 89.8176 210.421 90.6361C208.444 91.4545 206.27 91.6687 204.172 91.2514C202.074 90.8342 200.147 89.8043 198.635 88.292C197.122 86.7797 196.092 84.8529 195.675 82.7553C195.258 80.6576 195.472 78.4834 196.291 76.5074C197.109 74.5315 198.495 72.8427 200.274 71.6544C202.052 70.4662 204.143 69.832 206.282 69.832C207.702 69.8316 209.109 70.111 210.421 70.6543C211.733 71.1976 212.926 71.9941 213.93 72.9983C214.934 74.0025 215.731 75.1948 216.274 76.5069C216.818 77.8191 217.097 79.2254 217.097 80.6456Z" fill="#FBBEBE"/>
<path d="M216.637 98.3884C216.637 98.3884 214.601 100.606 214.325 100.788C214.048 100.97 208.147 125.822 208.043 126.112C207.939 126.401 201.23 154.934 201.23 154.934L189.83 156.33L188.9 137.254L190.852 126.846L198.981 104.211C198.981 104.211 201.663 101.162 202.492 100.053C203.322 98.9443 213.675 92.2891 213.675 92.2891L215.443 95.9337L216.637 98.3884Z" fill="#F0F3F7"/>
<path opacity="0.1" d="M215.171 96.4903L202.419 105.62L202.214 100.606C203.046 99.4977 213.396 92.8457 213.396 92.8457L215.171 96.4903Z" fill="black"/>
<path d="M215.447 95.9337L202.694 105.063L202.496 100.053C203.328 98.9411 213.678 92.2891 213.678 92.2891L215.447 95.9337Z" fill="#F0F3F7"/>
<path d="M202.496 97.9381V100.052L199.644 102.949L201.92 97.8545C201.92 97.8545 197.043 101.252 195.58 102.153C194.116 103.053 192.653 106.103 192.598 106.935C192.543 107.767 190.24 120.311 190.24 120.311C190.24 120.311 188.507 124.954 188.995 126.27C189.483 127.587 186.361 169.102 186.361 169.102C186.779 168.296 187.368 167.591 188.089 167.039C188.809 166.487 189.643 166.1 190.53 165.906L189.418 141.372C189.418 141.372 192.088 126.062 192.157 125.854C192.225 125.646 194.419 115.29 194.419 115.29L202.496 97.9381Z" fill="#585B8A"/>
<path opacity="0.1" d="M202.776 100.33L202.555 104.882C202.555 104.882 199.469 114.619 198.432 116.212C197.394 117.805 195.181 127.716 195.181 127.716L192.458 143.799L189.408 145.187L187.906 142.421L191.348 126.904C191.348 126.904 195.115 113.046 195.811 111.657L199.287 104.336L202.776 100.33Z" fill="black"/>
<path d="M202.495 100.055L202.277 104.606C202.277 104.606 199.191 114.344 198.151 115.937C197.11 117.53 194.948 127.252 194.948 127.252L192.191 143.52L189.141 144.905L187.616 142.135L191.101 126.429C191.101 126.429 194.824 112.757 195.517 111.372L199.019 104.06L202.495 100.055Z" fill="#ED677B"/>
<path d="M166.545 134.795L172.506 138.921C172.506 138.921 176.71 136.564 174.261 135.039C171.813 133.514 169.641 133.283 168.854 133.283C168.067 133.283 166.545 134.795 166.545 134.795Z" fill="#FBBEBE"/>
<path d="M170.998 127.168C170.865 127.251 170.755 127.367 170.68 127.504C170.604 127.641 170.565 127.795 170.565 127.952C170.565 129.217 170.709 132.565 171.769 131.054C173.069 129.204 172.832 127.542 174.818 128.742C176.053 129.511 177.134 130.503 178.005 131.668L177.452 127.695C177.452 127.695 173.368 125.679 170.998 127.168Z" fill="#FBBEBE"/>
<path opacity="0.1" d="M217.212 175.688C216.913 176.156 216.649 177.18 216.432 178.5C204.277 182.145 195.384 174.439 195.384 174.439C194.308 170.794 193.429 167.093 192.75 163.353C192.533 162.072 192.581 159.588 192.783 156.558L214.513 152.747C214.513 152.747 218.6 173.539 217.212 175.688Z" fill="black"/>
<path d="M229.689 113.656C229.136 115.461 229.344 119.131 229.344 119.131L224.353 142.696C224.353 142.696 221.927 160.854 221.511 163.28C221.095 165.705 220.402 176.379 220.402 176.379C206.261 183.311 195.365 173.885 195.365 173.885C194.289 170.238 193.41 166.537 192.731 162.795C192.035 158.679 194.084 142.189 195.053 134.864C195.342 132.696 195.537 131.33 195.537 131.33L199.176 117.815C199.176 117.815 203.647 106.413 205.312 103.087C206.976 99.7605 213.662 92.2892 213.662 92.2892C214.491 91.7625 215.817 93.6222 216.803 95.3161C217.547 96.5971 218.103 97.787 218.103 97.787C218.103 97.787 226.421 101.389 227.666 103.314C228.911 105.239 228.707 109.205 228.846 109.413C228.986 109.622 230.245 111.855 229.689 113.656Z" fill="#585B8A"/>
<path opacity="0.1" d="M210.075 105.272C210.075 105.272 210.699 108.946 209.099 110.055C207.555 111.128 196.057 133.734 195.342 135.145C195.631 132.973 195.826 131.607 195.826 131.607L199.465 118.095C199.465 118.095 203.939 106.693 205.601 103.364C207.262 100.035 213.954 92.5665 213.954 92.5665C214.783 92.0398 216.106 93.8996 217.092 95.5934C215.606 98.6789 212.507 104.512 210.075 105.272Z" fill="black"/>
<path d="M232.248 139.838L228.336 160.187V160.19L227.962 162.138V162.141L227.12 166.521L223.527 165.76L221.853 165.405L198.679 160.496L196.975 160.135L193.086 159.313L193.847 154.26L194.162 152.16L196.968 133.53L232.248 139.838Z" fill="#ED677B"/>
<path opacity="0.3" d="M198.85 160.478L197.146 160.118L193.785 154.468L194.101 152.368L198.85 160.478Z" fill="black"/>
<path d="M209.799 104.995C209.799 104.995 210.42 108.669 208.824 109.778C207.227 110.886 195.785 133.453 195.06 134.864C195.349 132.696 195.545 131.33 195.545 131.33L199.183 117.815C199.183 117.815 203.654 106.413 205.319 103.087C206.984 99.7605 213.669 92.2892 213.669 92.2892C214.498 91.7625 215.825 93.6222 216.81 95.3161C215.33 98.3983 212.228 104.234 209.799 104.995Z" fill="#585B8A"/>
<path d="M204.667 154.828C204.667 154.828 195.449 158.154 197.458 162.104C199.468 166.055 212.36 159.055 212.36 159.055L204.667 154.828Z" fill="#FBBEBE"/>
<path opacity="0.1" d="M211.251 183.172C211.251 183.448 211.599 186.986 212.985 188.231C214.37 189.476 211.251 183.172 211.251 183.172Z" fill="black"/>
<path opacity="0.1" d="M201.964 195.714C201.964 195.714 203.626 200.288 210.21 202.161C216.795 204.034 201.964 195.714 201.964 195.714Z" fill="black"/>
<path opacity="0.1" d="M217.098 80.648C217.099 82.549 216.598 84.4165 215.646 86.0621C214.695 87.7078 213.326 89.0734 211.678 90.0213C211.057 89.6738 210.506 89.2141 210.052 88.6656C209.581 88.0934 209.213 87.3131 209.496 86.6303C209.724 86.0809 210.325 85.733 210.472 85.164C210.541 84.8161 210.523 84.4565 210.42 84.1171C210.299 83.5807 210.186 83.0442 210.069 82.511C209.968 82.0558 209.789 81.5194 209.337 81.4088C208.885 81.2983 208.508 81.6754 208.153 81.955C207.285 82.641 205.62 83.106 204.577 82.5435C203.533 81.981 203.826 80.0986 203.656 79.0809C203.654 78.9925 203.633 78.9057 203.594 78.8265C203.554 78.7473 203.498 78.6776 203.429 78.6225C203.277 78.5721 203.115 78.5609 202.957 78.59C202.395 78.59 201.943 78.0861 201.78 77.5464C201.665 76.9954 201.602 76.4348 201.592 75.872C201.53 75.3095 201.325 74.7145 200.844 74.4252C200.459 74.2462 200.033 74.1765 199.611 74.2236L197.573 74.2464C198.925 72.4181 200.82 71.0626 202.987 70.3728C205.154 69.683 207.484 69.6939 209.644 70.4039C211.805 71.114 213.687 72.487 215.022 74.3279C216.357 76.1688 217.078 78.3837 217.082 80.6578L217.098 80.648Z" fill="black"/>
<path d="M208.442 81.9542C208.797 81.6746 209.187 81.3039 209.626 81.4112C210.065 81.5185 210.253 82.0615 210.354 82.5101L210.705 84.113C210.809 84.4533 210.828 84.8138 210.761 85.1631C210.595 85.7353 209.997 86.08 209.766 86.6294C209.483 87.3122 209.853 88.0925 210.322 88.6615C211.176 89.6906 212.357 90.3963 213.668 90.661C214.01 90.7432 214.366 90.751 214.711 90.6837C215.485 90.5049 216.012 89.7929 216.428 89.1264C218.577 85.7776 220.428 82.107 220.805 78.147C220.908 77.3393 220.871 76.5197 220.694 75.7248C220.518 75.1069 220.269 74.5122 219.953 73.9529C219.399 72.8103 218.696 71.7465 217.862 70.7894C216.383 69.1963 214.341 68.2177 212.243 67.639C209.884 66.9845 207.421 66.7913 204.989 67.07C204.339 67.1448 203.715 67.2521 203.074 67.2944C202.27 67.3318 201.464 67.3187 200.661 67.2553L195.875 66.9692C195.602 67.5252 195.875 68.1852 196.2 68.7054C196.525 69.2256 196.928 69.7653 196.902 70.383C196.876 71.0008 196.437 71.4885 196.099 72.0086C195.761 72.5288 195.504 73.2019 195.842 73.709C196.181 74.2162 196.87 74.2487 197.468 74.2422L199.881 74.2162C200.301 74.173 200.725 74.2461 201.107 74.4276C201.588 74.7169 201.793 75.3151 201.855 75.8744C201.868 76.4369 201.931 76.9973 202.043 77.5488C202.209 78.0885 202.658 78.5989 203.22 78.5924C203.378 78.561 203.541 78.5733 203.692 78.6282C203.761 78.6826 203.817 78.7517 203.856 78.8303C203.896 78.909 203.917 78.9954 203.919 79.0833C204.088 80.101 203.776 81.9802 204.84 82.5459C205.903 83.1116 207.574 82.6402 208.442 81.9542Z" fill="#85555C"/>
<path opacity="0.1" d="M222.187 103.31C220.992 103.183 219.789 103.466 218.775 104.113C217.762 104.76 216.999 105.732 216.611 106.87C215.31 110.573 213.141 117.254 213.684 119.894C214.448 123.637 215.349 129.876 215.349 129.876C215.349 129.876 219.3 132.152 217.3 134.447C215.3 136.742 214.735 139.994 214.735 139.994C214.735 139.994 212.169 141.102 211.616 143.459C211.064 145.817 207.318 149.071 207.318 149.071L201.706 154.686C201.706 154.686 210.992 164.114 212.865 164.596L218.617 157.872L225.41 148.863L231.301 142.686C231.301 142.686 232.687 139.434 231.994 133.257C231.301 127.08 228.596 121.198 228.596 121.198L228.804 119.117C228.804 119.117 229.441 104.211 222.187 103.31Z" fill="black"/>
<path d="M222.74 103.311C221.545 103.186 220.343 103.47 219.332 104.117C218.32 104.763 217.557 105.735 217.17 106.871C215.869 110.574 213.7 117.256 214.243 119.896C215.004 123.638 215.905 129.877 215.905 129.877C215.905 129.877 219.855 132.153 217.856 134.448C215.856 136.744 215.294 139.995 215.294 139.995C215.294 139.995 212.728 141.104 212.172 143.461C211.616 145.818 207.877 149.072 207.877 149.072L202.261 154.687C202.261 154.687 211.548 164.116 213.421 164.597L219.173 157.873L225.949 148.864L231.841 142.687C231.841 142.687 233.229 139.436 232.533 133.258C231.838 127.081 229.139 121.199 229.139 121.199L229.347 119.119C229.347 119.119 229.994 104.212 222.74 103.311Z" fill="#585B8A"/>
<path opacity="0.1" d="M216.936 124.402C216.936 124.402 222.827 131.607 225.325 130.014C227.822 128.421 216.936 124.402 216.936 124.402Z" fill="black"/>
<path opacity="0.1" d="M219.153 118.855C219.777 119.064 224.908 126.203 227.542 125.358C230.176 124.513 219.153 118.855 219.153 118.855Z" fill="black"/>
<path opacity="0.1" d="M220.609 131.12C220.609 131.12 220.957 135.21 225.184 134.654C229.411 134.098 220.609 131.12 220.609 131.12Z" fill="black"/>
<path opacity="0.1" d="M201.93 98.1318L199.644 103.227L202.499 100.33L201.93 98.1318Z" fill="black"/>
<path d="M201.93 97.8545L199.644 102.949L202.499 100.052L201.93 97.8545Z" fill="#F0F3F7"/>
<path opacity="0.3" d="M228.417 160.052L228.043 161.999V162.002L222.445 165.524L220.771 165.17L228.417 160.052Z" fill="black"/>
<path opacity="0.1" d="M152.502 135.811C151.644 135.954 150.811 136.084 150.05 136.181C145.823 136.737 135.77 131.747 135.77 131.747C135.77 131.747 123.501 121.489 119.967 111.787C116.432 102.086 124.194 100.629 124.194 100.629C127.12 98.9646 133.484 103.607 134.384 104.371C135.285 105.135 136.049 107.073 135.978 108.322C135.906 109.57 138.059 111.163 138.059 111.163C138.059 111.163 141.733 117.539 142.634 118.231C143.534 118.924 143.742 119.548 144.019 120.728C144.295 121.909 146.721 122.877 147.761 122.806C148.802 122.734 150.037 123.154 150.037 123.706C150.037 124.152 151.055 124.373 151.891 124.444C152.138 127.998 152.382 132.654 152.502 135.811Z" fill="black"/>
<path opacity="0.1" d="M152.463 134.796C151.813 134.9 151.189 134.994 150.603 135.072C146.376 135.628 136.326 130.637 136.326 130.637C136.326 130.637 124.058 120.38 120.523 110.678C116.989 100.976 124.75 99.5198 124.75 99.5198C127.677 97.8552 134.037 102.498 134.937 103.262C135.838 104.026 136.602 105.964 136.534 107.212C136.466 108.461 138.612 110.054 138.612 110.054C138.612 110.054 142.286 116.429 143.187 117.122C144.087 117.815 144.295 118.439 144.575 119.619C144.855 120.799 147.277 121.765 148.318 121.696C149.358 121.628 150.594 122.044 150.594 122.597C150.594 122.922 151.172 123.14 151.816 123.247C151.842 123.624 151.865 124.024 151.894 124.441C152.109 127.636 152.33 131.714 152.463 134.796Z" fill="black"/>
<path opacity="0.1" d="M168.542 127.814L168.279 134.044H167.996L167.411 133.719L167.482 128.351C167.824 128.15 168.178 127.971 168.542 127.814Z" fill="black"/>
<path d="M124.194 100.072C124.194 100.072 116.432 101.529 119.967 111.231C123.501 120.932 135.77 131.193 135.77 131.193C135.77 131.193 145.82 136.181 150.05 135.628C154.281 135.075 160.722 133.619 161.555 133.827C162.387 134.035 168.002 134.035 168.002 134.035L168.279 127.532L161.776 127.184L158.449 126.492C158.449 126.492 157.269 125.517 156.576 125.66C155.884 125.803 154.43 124.827 154.43 124.827C154.43 124.827 153.318 123.927 152.479 123.927C151.64 123.927 150.054 123.719 150.054 123.166C150.054 122.613 148.805 122.191 147.778 122.265C146.75 122.34 144.295 121.365 144.009 120.172C143.723 118.978 143.525 118.37 142.624 117.678C141.723 116.985 138.049 110.606 138.049 110.606C138.049 110.606 135.9 109.013 135.968 107.768C136.036 106.523 135.275 104.579 134.375 103.815C133.474 103.051 127.101 98.4111 124.194 100.072Z" fill="#DCE6F2"/>
<path opacity="0.1" d="M144.16 122.389C144.16 122.389 141.178 125.37 141.939 125.923L144.16 122.389Z" fill="black"/>
<path opacity="0.1" d="M147.346 124.746C147.346 124.746 143.464 127.727 144.504 127.936C145.545 128.144 147.346 124.746 147.346 124.746Z" fill="black"/>
<path opacity="0.1" d="M140.759 129.168C141.315 129.448 149.561 134.37 152.682 134.298L140.759 129.168Z" fill="black"/>
<path opacity="0.1" d="M141.317 96.2635C141.317 96.2635 139.861 101.046 139.304 101.046C138.869 101.046 131.553 95.1223 128.5 92.6319L128.633 92.5214C128.633 92.5214 128.909 90.3723 130.018 89.2701C131.127 88.168 141.317 96.2635 141.317 96.2635Z" fill="black"/>
<path d="M141.038 95.7059C141.038 95.7059 139.584 100.488 139.028 100.488C138.589 100.488 131.273 94.5647 128.22 92.0743L128.354 91.9637C128.354 91.9637 128.633 89.8147 129.742 88.7125C130.851 87.6103 141.038 95.7059 141.038 95.7059Z" fill="#DCE6F2"/>
<g opacity="0.15">
<path opacity="0.15" d="M121.409 80.252C122.384 82.479 125.07 83.5585 126.627 85.3336C125.701 83.152 122.992 82.0824 121.409 80.252Z" fill="black"/>
<path opacity="0.15" d="M131.348 85.3821C130.961 86.1267 130.047 86.4876 129.215 86.4713C128.475 86.4182 127.75 86.2332 127.075 85.9251C127.32 86.286 127.507 86.6832 127.628 87.102C128.387 87.4668 129.207 87.6873 130.047 87.7523C130.889 87.7718 131.793 87.4109 132.18 86.6631C132.801 85.4764 132.154 84.462 131.397 83.5029C131.538 83.7977 131.607 84.1217 131.598 84.4484C131.59 84.7751 131.504 85.0951 131.348 85.3821Z" fill="black"/>
<path opacity="0.15" d="M143.415 69.0871C143.276 68.4629 142.801 67.972 142.557 67.3835C142.408 66.9282 142.289 66.4632 142.203 65.992C142.018 65.3255 141.675 64.7133 141.204 64.207C141.27 64.3671 141.325 64.531 141.37 64.698C141.461 65.1713 141.583 65.6383 141.734 66.096C141.978 66.6845 142.453 67.1754 142.593 67.7996C142.675 68.2406 142.587 68.6964 142.345 69.0745C142.103 69.4525 141.727 69.7244 141.292 69.8349C140.089 70.0983 138.717 69.0579 137.683 69.7276C137.049 70.134 136.903 70.9826 136.818 71.7304C136.673 73.0309 136.525 74.3238 136.376 75.6091C136.346 76.0651 136.25 76.5142 136.09 76.9421C135.579 78.1125 134.178 78.662 132.9 78.6425C132.401 78.6758 131.908 78.5125 131.528 78.1873C131.343 77.9255 131.144 77.6738 130.933 77.433C129.307 76.0675 128.813 79.4065 129.242 80.3591C129.457 80.7877 129.723 81.1884 130.035 81.5523C129.678 80.4794 130.178 77.3908 131.765 78.714C131.977 78.954 132.174 79.2058 132.357 79.4683C132.739 79.793 133.232 79.9563 133.732 79.9235C135.01 79.943 136.412 79.3935 136.922 78.2231C137.083 77.7942 137.179 77.3439 137.208 76.8868C137.356 75.5863 137.503 74.2945 137.65 73.0114C137.735 72.2636 137.881 71.415 138.512 71.0086C139.549 70.3389 140.921 71.3792 142.125 71.1126C142.556 71.0008 142.929 70.7297 143.169 70.3538C143.408 69.978 143.496 69.5254 143.415 69.0871Z" fill="black"/>
</g>
<path opacity="0.1" d="M215.404 89.8544C215.058 89.9189 214.703 89.91 214.36 89.8284C213.051 89.5639 211.871 88.8595 211.018 87.8321C210.546 87.2599 210.176 86.4796 210.462 85.7969C210.689 85.2474 211.288 84.9028 211.437 84.3306C211.505 83.9813 211.486 83.6207 211.382 83.2804L211.031 81.6776C210.93 81.2224 210.754 80.6859 210.302 80.5786C209.85 80.4714 209.473 80.842 209.119 81.1216C208.251 81.8076 206.583 82.2758 205.542 81.7101C204.502 81.1444 204.791 79.2651 204.622 78.2475C204.619 78.1597 204.597 78.0735 204.558 77.995C204.519 77.9164 204.463 77.8473 204.394 77.7923C204.242 77.7393 204.078 77.727 203.92 77.7566C203.357 77.7566 202.908 77.2526 202.742 76.7129C202.63 76.1616 202.568 75.6012 202.557 75.0385C202.492 74.4793 202.29 73.8811 201.806 73.5917C201.424 73.4119 201 73.3389 200.58 73.3804L198.167 73.4064C197.572 73.4064 196.867 73.3674 196.542 72.8732C196.217 72.379 196.457 71.6768 196.799 71.1728C197.14 70.6689 197.572 70.1682 197.602 69.5472C197.631 68.9262 197.228 68.3898 196.899 67.8696C196.711 67.5851 196.573 67.2707 196.49 66.9397L195.797 66.8975C195.527 67.4502 195.797 68.1102 196.122 68.6336C196.447 69.1571 196.854 69.6935 196.825 70.308C196.795 70.9225 196.363 71.4167 196.021 71.9336C195.68 72.4506 195.43 73.1268 195.768 73.634C196.106 74.1412 196.792 74.177 197.394 74.1705L199.806 74.1412C200.227 74.1005 200.65 74.1747 201.032 74.3558C201.517 74.6451 201.721 75.2434 201.783 75.8026C201.794 76.3654 201.857 76.926 201.972 77.477C202.134 78.0134 202.586 78.5271 203.149 78.5174C203.307 78.4895 203.469 78.5018 203.62 78.5531C203.689 78.6086 203.745 78.6782 203.784 78.7574C203.824 78.8365 203.845 78.9232 203.848 79.0116C204.017 80.0259 203.705 81.9084 204.768 82.4741C205.831 83.0398 207.49 82.5717 208.345 81.8856C208.699 81.606 209.093 81.2354 209.532 81.3394C209.971 81.4435 210.159 81.9897 210.257 82.4383L210.611 84.0445C210.714 84.385 210.732 84.7456 210.663 85.0946C210.501 85.6636 209.899 86.0115 209.672 86.5577C209.389 87.2404 209.756 88.024 210.228 88.5929C211.087 89.6247 212.275 90.3295 213.593 90.5892C213.935 90.6708 214.291 90.6797 214.637 90.6152C215.196 90.4449 215.675 90.0805 215.989 89.5878C215.812 89.7109 215.614 89.8012 215.404 89.8544Z" fill="black"/>
<defs>
<linearGradient id="paint0_linear" x1="171.4" y1="252.247" x2="171.4" y2="61.8873" gradientUnits="userSpaceOnUse">
<stop stop-color="#808080" stop-opacity="0.25"/>
<stop offset="0.54" stop-color="#808080" stop-opacity="0.12"/>
<stop offset="1" stop-color="#808080" stop-opacity="0.1"/>
</linearGradient>
</defs>
</svg>
