<svg width="131" height="42" viewBox="0 0 131 42" fill="none" xmlns="http://www.w3.org/2000/svg">
<path fill-rule="evenodd" clip-rule="evenodd" d="M6.4996 5.49951L11.8996 10.8995C7.42609 15.373 7.42609 22.626 11.8996 27.0995C16.3731 31.573 23.6261 31.573 28.0996 27.0995C32.5731 22.626 32.5731 15.373 28.0996 10.8995L33.4996 5.49951C40.9554 12.9554 40.9554 25.0437 33.4996 32.4995C26.0438 39.9554 13.9554 39.9554 6.4996 32.4995C-0.956246 25.0437 -0.956246 12.9554 6.4996 5.49951Z" fill="white"/>
<path d="M59.1564 21.7695H52.6876V25.8359H60.3282V28.9999H48.5743V11.9374H60.3517V15.1132H52.6876V18.7109H59.1564V21.7695Z" fill="white"/>
<path d="M66.5743 24.3007L68.5782 16.3203H72.7384L68.6017 28.9999H64.5704L60.4337 16.3203H64.6056L66.5743 24.3007Z" fill="white"/>
<path d="M79.8868 29.2343C77.9415 29.2343 76.3673 28.6562 75.1642 27.4999C73.9611 26.3359 73.3595 24.8242 73.3595 22.9648V22.6367C73.3595 21.3398 73.5978 20.1953 74.0743 19.2031C74.5587 18.2109 75.2618 17.4453 76.1837 16.9062C77.1056 16.3593 78.1993 16.0859 79.465 16.0859C81.2462 16.0859 82.6525 16.6406 83.6837 17.7499C84.715 18.8515 85.2306 20.3906 85.2306 22.3671V23.9023H77.379C77.5196 24.6132 77.8282 25.1718 78.3048 25.5781C78.7814 25.9843 79.3986 26.1874 80.1564 26.1874C81.4064 26.1874 82.3829 25.7499 83.0861 24.8749L84.8907 27.0078C84.3986 27.6874 83.6993 28.2304 82.7931 28.6367C81.8946 29.0351 80.9259 29.2343 79.8868 29.2343ZM79.4415 19.1328C78.2853 19.1328 77.5978 19.8984 77.379 21.4296H81.3634V21.1249C81.379 20.4921 81.2189 20.0039 80.8829 19.6601C80.547 19.3085 80.0665 19.1328 79.4415 19.1328Z" fill="white"/>
<path d="M94.5001 19.8945L93.1993 19.8007C91.9571 19.8007 91.1603 20.1914 90.8087 20.9726V28.9999H86.8595V16.3203H90.5626L90.6915 17.9492C91.3556 16.707 92.2814 16.0859 93.4689 16.0859C93.8907 16.0859 94.2579 16.1328 94.5704 16.2265L94.5001 19.8945Z" fill="white"/>
<path d="M95.2267 22.5664C95.2267 21.2851 95.4376 20.1523 95.8595 19.1679C96.2814 18.1835 96.8868 17.4257 97.6759 16.8945C98.465 16.3554 99.3829 16.0859 100.43 16.0859C101.75 16.0859 102.781 16.5312 103.524 17.4218L103.664 16.3203H107.25V28.5195C107.25 29.6367 106.988 30.6054 106.465 31.4257C105.949 32.2539 105.199 32.8867 104.215 33.3242C103.231 33.7695 102.09 33.9921 100.793 33.9921C99.8634 33.9921 98.9611 33.8164 98.0861 33.4648C97.2189 33.1132 96.5548 32.6562 96.0939 32.0937L97.7462 29.7734C98.4806 30.6406 99.4493 31.0742 100.652 31.0742C102.402 31.0742 103.277 30.1757 103.277 28.3789V27.9804C102.52 28.8164 101.563 29.2343 100.406 29.2343C98.8595 29.2343 97.6095 28.6445 96.6564 27.4648C95.7032 26.2773 95.2267 24.6914 95.2267 22.707V22.5664ZM99.1876 22.8124C99.1876 23.8515 99.3829 24.6757 99.7736 25.2851C100.164 25.8867 100.711 26.1874 101.414 26.1874C102.266 26.1874 102.887 25.9023 103.277 25.332V19.9999C102.895 19.4218 102.281 19.1328 101.438 19.1328C100.734 19.1328 100.184 19.4492 99.7853 20.082C99.3868 20.707 99.1876 21.6171 99.1876 22.8124Z" fill="white"/>
<path d="M115.629 29.2343C113.684 29.2343 112.109 28.6562 110.906 27.4999C109.703 26.3359 109.102 24.8242 109.102 22.9648V22.6367C109.102 21.3398 109.34 20.1953 109.817 19.2031C110.301 18.2109 111.004 17.4453 111.926 16.9062C112.848 16.3593 113.942 16.0859 115.207 16.0859C116.988 16.0859 118.395 16.6406 119.426 17.7499C120.457 18.8515 120.973 20.3906 120.973 22.3671V23.9023H113.121C113.262 24.6132 113.57 25.1718 114.047 25.5781C114.524 25.9843 115.141 26.1874 115.899 26.1874C117.149 26.1874 118.125 25.7499 118.828 24.8749L120.633 27.0078C120.141 27.6874 119.442 28.2304 118.535 28.6367C117.637 29.0351 116.668 29.2343 115.629 29.2343ZM115.184 19.1328C114.027 19.1328 113.34 19.8984 113.121 21.4296H117.106V21.1249C117.121 20.4921 116.961 20.0039 116.625 19.6601C116.289 19.3085 115.809 19.1328 115.184 19.1328Z" fill="white"/>
<path d="M127.172 13.1679V16.3203H129.258V19.0624H127.172V24.8632C127.172 25.3398 127.258 25.6718 127.43 25.8593C127.602 26.0468 127.942 26.1406 128.449 26.1406C128.84 26.1406 129.168 26.1171 129.434 26.0703V28.8945C128.723 29.121 127.981 29.2343 127.207 29.2343C125.848 29.2343 124.844 28.914 124.195 28.2734C123.547 27.6328 123.223 26.6601 123.223 25.3554V19.0624H121.606V16.3203H123.223V13.1679H127.172Z" fill="white"/>
</svg>
