<svg width="255" height="190" fill="none" xmlns="http://www.w3.org/2000/svg"><g clip-path="url(#clip0)"><path opacity=".1" d="M25.618 19.487c-1.585.658-3.212 1.502-4.083 2.981-.923 1.563-.812 3.504-.64 5.312 1.496 15.684 5.44 32.363-1.37 46.57-3.305 6.891-8.833 12.415-13.23 18.674C1.9 99.283-1.42 107.097.62 114.46c2.493 8.997 11.797 13.985 18.069 20.909 4.105 4.527 6.983 10.028 10.813 14.79 3.83 4.763 9.078 8.958 15.192 9.238 8.794.405 15.949-7.189 24.57-8.948 8.833-1.801 17.728 2.782 24.89 8.268 7.162 5.487 13.676 12.133 22.021 15.558 9.215 3.786 19.604 3.207 29.305 5.482 8.833 2.073 16.964 6.482 25.734 8.833 8.769 2.35 19.047 2.208 25.841-3.796 8.855-7.851 8.158-21.837 13.813-32.223 5.254-9.65 15.537-15.411 22.458-23.942 12.454-15.355 12.047-38.823 1.472-55.522-10.575-16.7-29.73-26.81-49.317-29.443-8.833-1.185-17.928-1.023-26.42-3.72-22.73-7.213-36.257-33.06-59.463-38.438-14.75-3.413-29.097 2.498-41.662 9.773-10.906 6.315-20.968 3.499-32.318 8.207z" fill="#007EFF"/><path d="M128.063 183.65c49.053 0 88.819-39.766 88.819-88.82 0-49.053-39.766-88.82-88.819-88.82-49.054 0-88.82 39.767-88.82 88.82 0 49.054 39.766 88.82 88.82 88.82z" fill="url(#paint0_linear)"/><path d="M128.063 182.178c48.24 0 87.347-39.107 87.347-87.348 0-48.24-39.107-87.348-87.347-87.348-48.241 0-87.348 39.107-87.348 87.348s39.107 87.348 87.348 87.348z" fill="#007EFF"/><path d="M128.063 164.267c38.348 0 69.436-31.088 69.436-69.437s-31.088-69.436-69.436-69.436c-38.35 0-69.437 31.087-69.437 69.436 0 38.349 31.088 69.437 69.437 69.437z" fill="#DDE1EC"/><path opacity=".3" d="M130.025 37.661H126.1v61.34h3.925V37.66z" fill="#535461"/><g opacity=".1" fill="#000"><path opacity=".1" d="M187.685 93.358h-55.452v4.908h55.452v-4.908zm-94.6-18.359l-2.277 4.347 34.89 18.271 2.277-4.347-34.89-18.271z"/><path opacity=".1" d="M128.062 103.172a7.36 7.36 0 100-14.721 7.36 7.36 0 000 14.721z"/></g><path d="M187.685 92.376h-55.451v4.907h55.451v-4.907zm-59.694-.082l-34.89-18.272-2.277 4.348 34.89 18.27 2.277-4.346z" fill="#535461"/><path d="M128.062 102.191a7.36 7.36 0 100-14.721 7.36 7.36 0 00-7.36 7.36 7.36 7.36 0 007.36 7.361z" fill="#535461"/><path opacity=".1" d="M64.02 103.172c0-38.35 31.086-69.436 69.436-69.436a69.332 69.332 0 0155.49 27.686c-11.817-21.474-34.635-36.028-60.888-36.028-38.35 0-69.437 31.087-69.437 69.436a69.126 69.126 0 0013.954 41.75 69.12 69.12 0 01-8.556-33.408z" fill="#000"/><path d="M192.219 43.751c-.825-.792-7.764 4.417-7.764 4.417s-2.47.451-1.881 2.147c.588 1.695-2.589 11.19-2.589 11.19l-1.293-1.808c.125-2.122-.459-3.626-1.028-4.564a5.616 5.616 0 00-.14-.218l.226-.078c-.086-1.159-1.939-2.923-2.922-3.786v-.373c.061-1.384.615-2.844 0-4.098-.697-1.43-2.736-2.15-2.908-3.72-.103-.937.53-1.783.81-2.686.667-2.16-.719-4.362-2.044-6.222a8.708 8.708 0 00-1.622-1.87 7.867 7.867 0 00-1.948-1.04c-1.941-.786-3.926-1.18-5.928-1.718-1.921-.51-3.693-.753-5.643-.113a2.773 2.773 0 00-1.227.705c-.464.52-.525 1.26-.829 1.881-.491.999-1.548 1.595-2.483 2.236-.935.64-1.872 1.518-1.877 2.623 0 1.567 1.791 2.554 2.389 4.014.56 1.359 0 2.873-.311 4.306-.13.463-.143.951-.037 1.42.124.35.31.674.55.957.37.49.768.947 1.163 1.413l-.182.072c-3.293-.339-5.41 3.842-5.41 3.842.152.032.297.069.439.11l-.14.182a17.819 17.819 0 00-2.416 4.227l-2.699 3.617s-.589-9.044.824-11.078c1.413-2.034-1.293-3.278-1.293-3.278s-5.889-6.556-6.706-5.992c-.817.565 2 7.688 4.471 8.819 0 0 .245 2.26-.246 3.729-.297.93-1.882 10.74-1.882 10.74s-1.41 8.25 5.06 4.17c4.203-2.645 6.919-7.198 8.303-10.06.096-.2.187-.393.272-.576.064.304.107.611.13.92l.245 9.454a14.345 14.345 0 01-1.486 6.752l-2.883 5.847.321.098-.194.28c-1.899 2.795-5.128 9.078 1.519 12.28l8.833 1.131-.471 2.26s-3.646 6.895-4.706 11.642a34.914 34.914 0 01-3.06 8.365l.273.144c-.057.064-.116.13-.172.199a4.257 4.257 0 00-1.021 2.14l-1.197 1.697s-.471 7.008.471 8.706c.515.927 2.225 1.516 3.68 1.86 2.159.512 3.901-1.718 2.756-3.556l-.015-.024h-.022c-.246-1.141-.996-4.682-.751-6.026.069-.383.132-.763.164-1.151a4.061 4.061 0 01.457-1.455c.039-.076.081-.15.122-.223l.128.054c.395.169.785.329 1.156.468-.574.523-.982 1.605-.491 3.831 0 0 .047 5.567.471 6.443.424.876 5.175 2.034 5.999 1.131.824-.903-.53-4.014-.53-4.014l-.042.029c-.272-1.803-.608-5.032.219-6.303.333-.513.657-1.043.947-1.539l.179-.306c1.536.765 3.16 1.342 4.048.942 0 0 3.882-9.044 3.646-10.173-.235-1.128 5.999-13.904 5.999-13.904s5.293-5.889-1.175-9.947c-2.054-1.293-3.55-2.162-4.637-2.748l-.91-4.76a17.395 17.395 0 01.245-7.523l.981-3.744.081-.319s2.471-5.086 2.353-7.461c-.009-.185.012-.37.062-.547.027.113.056.23.088.353a45.526 45.526 0 002.557 7.204c1.877 4.235 4.661 3.898 6.188 3.297a2.11 2.11 0 001.302-1.526c.55-2.635 2.059-10.018 2.155-12.057a34.15 34.15 0 01.589-4.747c3.871-2.265 7.164-6.22 6.34-7.013z" fill="url(#paint1_linear)"/><path d="M163.417 116.186s-.518 1.038-1.227 2.285c-.278.49-.587 1.018-.903 1.526-1.121 1.793 0 7.508 0 7.508l-2.454.336-2.453-1.227-.449-4.147v-3.032l2.797-3.128 1.227-1.355 3.462 1.234z" fill="#F8BDC5"/><path opacity=".1" d="M163.416 116.186s-.517 1.038-1.226 2.285a30.24 30.24 0 01-3.136-1.929l-.216-.152-.115-.083 1.226-1.355 3.467 1.234z" fill="#000"/><path d="M175.412 95.228s-5.941 12.663-5.715 13.784c.226 1.122-3.474 10.087-3.474 10.087-.844.397-2.395-.174-3.857-.932a30.392 30.392 0 01-3.19-1.963l-.216-.152-.13-.094 9.751-27.009-8.627-6.328-.638-.468-3.857-2.846 11.777 2.13s.41-.052 2.576 1.16c1.041.581 2.486 1.452 4.483 2.763 6.156 4.04 1.117 9.868 1.117 9.868z" fill="#575988"/><path d="M175.412 95.228s-5.941 12.663-5.715 13.784c.226 1.122-3.474 10.087-3.474 10.087-.844.397-2.395-.174-3.857-.932a30.392 30.392 0 01-3.19-1.963l-.216-.152-.13-.094 9.751-27.009-8.627-6.328-.638-.468-3.857-2.846 11.777 2.13s.41-.052 2.576 1.16c1.041.581 2.486 1.452 4.483 2.763 6.156 4.04 1.117 9.868 1.117 9.868z" fill="#575988" opacity=".03"/><path d="M157.366 118.427s-2.915-.449-1.904 4.259c0 0 .044 5.521.449 6.379.404.859 4.931 2.017 5.714 1.122.783-.896-.505-3.978-.505-3.978s-3.305 2.41-4.203-.169c-.898-2.579.449-7.613.449-7.613z" fill="#5D3E53"/><path d="M155.346 117.531a3.532 3.532 0 00-.763 1.06c-.231.45-.378.939-.434 1.442-.029.383-.091.763-.155 1.141-.279 1.597.793 6.33.793 6.33l-4.259.673-1.568-1.681-.336-3.698c.418-1.267.645-2.59.672-3.925 0-.965.491-1.826.981-2.454a6.761 6.761 0 011.136-1.126s4.831 1.452 3.933 2.238z" fill="#F8BDC5"/><path opacity=".1" d="M155.346 117.531a3.532 3.532 0 00-.763 1.06c-1.744-.788-3.577-1.782-4.244-2.15l-.052-.027a6.761 6.761 0 011.136-1.126s4.821 1.458 3.923 2.243z" fill="#000"/><path d="M169.133 91.867s-2.8 5.267-4.596 9.637c-1.177 2.871-3.611 9.707-5.152 14.059l-.226.643a921.39 921.39 0 00-1.129 3.229 2.929 2.929 0 01-.881-.13 10 10 0 01-.878-.285l-.356-.135a20.673 20.673 0 01-1.101-.463c-1.782-.795-3.681-1.831-4.37-2.208l-.26-.145a35.471 35.471 0 002.922-8.301c1.008-4.706 4.483-11.532 4.483-11.532l.449-2.242-8.406-1.121c-6.333-3.166-3.256-9.405-1.448-12.175.308-.481.642-.945.999-1.391l6.725 1.472s1.06.338 3.415 1.381l1.082.49c1.32.607 2.945 1.387 4.908 2.388 6.619 3.347 3.82 6.829 3.82 6.829z" fill="#575988"/><path d="M154.746 127.169a2.379 2.379 0 01-1.248 3.456 2.381 2.381 0 01-1.378.067c-1.376-.341-3.008-.925-3.499-1.845-.895-1.681-.449-8.629-.449-8.629l1.178-1.738s-.616 7.678.842 8.343c1.457.665 4.539.311 4.539.311l.015.035z" fill="#5D3E53"/><path d="M155.938 29.71a2.621 2.621 0 00-1.178.699c-.442.515-.491 1.251-.79 1.867-.466.981-1.472 1.582-2.365 2.208-.894.626-1.784 1.506-1.789 2.6 0 1.556 1.717 2.533 2.277 3.978.532 1.35 0 2.849-.297 4.27-.124.46-.136.942-.034 1.408.117.345.294.666.525.95 1.082 1.471 2.426 2.777 3.15 4.453.55 1.273.702 2.679.847 4.06.208 1.988.417 4.012.039 5.975a.6.6 0 000 .36c.064.113.166.2.287.246a5.89 5.89 0 007.972-2.945c.49-1.111.679-2.453 1.651-3.175a.826.826 0 01.395-.179c.229.007.451.081.638.214 1.261.682 2.79.702 4.196.422.848-.17 1.717-.471 2.279-1.134 1.106-1.315.491-3.28.564-4.995.059-1.372.587-2.82 0-4.06-.662-1.42-2.608-2.13-2.77-3.681-.098-.928.506-1.77.773-2.662.635-2.142-.685-4.326-1.946-6.169a8.546 8.546 0 00-1.543-1.852 7.404 7.404 0 00-1.855-1.03c-1.847-.779-3.732-1.171-5.643-1.701-1.831-.523-3.516-.766-5.383-.128z" fill="#85555C"/><path d="M165.323 61.719h-6.502V51.183a19.62 19.62 0 00.338-3.067v-1.055c-.061-1.256-.321-2.51-1.003-3.275-1.794-2.017 5.827-1.681 5.827-1.681.234.926.537 1.833.908 2.714a16.498 16.498 0 002.183 3.844 8.904 8.904 0 002.962 2.52c4.475 2.243-4.713 10.536-4.713 10.536z" fill="#F8BDC5"/><path opacity=".1" d="M164.883 44.819a5.95 5.95 0 01-5.731 2.242c-.062-1.256-.322-2.51-1.004-3.275-1.793-2.017 5.828-1.681 5.828-1.681.233.926.537 1.833.907 2.714z" fill="#000"/><path d="M160.165 46.816a5.94 5.94 0 100-11.88 5.94 5.94 0 000 11.88zm24.657 4.256a35.275 35.275 0 00-.56 4.706c-.09 2.02-1.528 9.341-2.053 11.954a2.075 2.075 0 01-1.242 1.514c-1.457.596-4.107.93-5.889-3.268a46.47 46.47 0 01-2.436-7.14 19.455 19.455 0 01-.491-2.498l3.926-2.13c.37.346.683.748.928 1.19.542.93 1.099 2.422.981 4.525l1.227 1.794s3.025-9.415 2.453-11.096c-.571-1.68 1.794-2.13 1.794-2.13s6.612-5.152 7.398-4.37c.785.784-2.339 4.707-6.036 6.95zm-32.165 4.484a26.317 26.317 0 01-1.055 2.576c-1.32 2.84-3.906 7.361-7.91 9.977-6.163 4.033-4.819-4.147-4.819-4.147s1.509-9.726 1.794-10.646c.449-1.458.223-3.698.223-3.698-2.353-1.12-5.042-8.18-4.259-8.742.782-.562 6.379 5.94 6.379 5.94s2.579 1.227 1.227 3.251c-1.352 2.025-.785 10.983-.785 10.983l2.593-3.58a17.894 17.894 0 012.304-4.19c.491-.67.834-1.076.834-1.076l3.474 3.352z" fill="#F8BDC5"/><path opacity=".1" d="M177.007 55.401c-.825.305-4.017 1.593-4.37 3.435a19.123 19.123 0 01-.491-2.497l3.926-2.13c.372.346.688.748.935 1.192zm-24.349.154a26.82 26.82 0 01-1.055 2.577c-.153-1.11-.778-3.946-3.254-4.861.491-.67.834-1.075.834-1.075l3.475 3.36zm12.665 6.164h-6.502V51.183a19.62 19.62 0 00.338-3.067c1.338 1.29 1.006 3.29 1.006 3.29l3.475 7.852 1.683-6.941-.56-.896 2.307-2.743a8.891 8.891 0 002.961 2.52c4.48 2.228-4.708 10.52-4.708 10.52zm4.593 21.513s-5.094-.404-9.513-.596l-.444-.02c-.628-.024-1.226-.044-1.813-.058-4.289-.103-9.139-1.603-9.964-1.865.309-.48.644-.942 1.001-1.386l6.725 1.472s1.06.338 3.416 1.381l-3.865-2.853 11.778 2.13s.409-.052 2.576 1.16l.103.635z" fill="#000"/><path d="M165.322 52.754l-.559-.896 2.488-2.976s5.13 2.515 6.475 1.963c0 0 3.251 2.699 3.361 4.26 0 0-4.706 1.567-4.595 3.925.11 2.358-2.233 7.395-2.233 7.395l-.981 4.029a17.935 17.935 0 00-.246 7.459l.896 4.988s-7.062-.56-11.777-.672c-4.716-.113-10.087-1.904-10.087-1.904l2.75-5.788a14.727 14.727 0 001.419-6.694l-.246-9.37s-.223-4.706-3.925-5.491c0 0 2.016-4.146 5.152-3.81 0 0 4.569-1.907 5.925-.619 1.357 1.288 1.024 3.308 1.024 3.308l3.474 7.851 1.685-6.958z" fill="#ED677B"/><path opacity=".1" d="M155.879 39.651c.9 0 1.607-.954 2.507-.905.466.025.866.322 1.252.589a15.266 15.266 0 004.786 2.208c.665.177 1.37.31 2.037.147.667-.161 1.293-.687 1.369-1.371a2.322 2.322 0 00-.118-.89 11.009 11.009 0 00-4.794-6.329c-.932-.571-2.071-1.008-3.104-.65-.932.322-1.533 1.195-2.208 1.914a8.396 8.396 0 01-1.718 1.394c-.49.297-1.226.49-1.509 1.035-.532 1.016.305 2.849 1.5 2.858z" fill="#000"/><path d="M155.879 39.428c.9 0 1.607-.955 2.507-.905.466.024.866.32 1.252.588a15.27 15.27 0 004.786 2.209c.665.176 1.37.309 2.037.147.667-.162 1.293-.687 1.369-1.372a2.322 2.322 0 00-.118-.89 11.009 11.009 0 00-4.794-6.328c-.932-.572-2.071-1.009-3.104-.65-.932.321-1.533 1.195-2.208 1.913a8.392 8.392 0 01-1.718 1.394c-.49.297-1.226.49-1.509 1.035-.532 1.026.305 2.847 1.5 2.859z" fill="#85555C"/><path opacity=".05" d="M153.163 65.024s5.491 2.017 9.078.45l1.793.112s2.982 2.09 6.134 1.156m8.995-5.08s-.895 2.13-.449 2.802l.449-2.802zm-35.751-.672s.449 2.13 0 2.802V60.99z" fill="#000"/></g><defs><linearGradient id="paint0_linear" x1="128.063" y1="183.65" x2="128.063" y2="6.011" gradientUnits="userSpaceOnUse"><stop stop-color="gray" stop-opacity=".25"/><stop offset=".54" stop-color="gray" stop-opacity=".12"/><stop offset="1" stop-color="gray" stop-opacity=".1"/></linearGradient><linearGradient id="paint1_linear" x1="42938.4" y1="61036.1" x2="42938.4" y2="18369.5" gradientUnits="userSpaceOnUse"><stop stop-color="gray" stop-opacity=".25"/><stop offset=".54" stop-color="gray" stop-opacity=".12"/><stop offset="1" stop-color="gray" stop-opacity=".1"/></linearGradient><clipPath id="clip0"><path fill="#fff" transform="translate(0 .512)" d="M0 0h254.668v189.488H0z"/></clipPath></defs></svg>