<svg width="288" height="216" fill="none" xmlns="http://www.w3.org/2000/svg"><g clip-path="url(#clip0)"><g opacity=".1"><path opacity=".1" d="M188.795 212.727c3.969 0 7.186-4.211 7.186-9.405 0-5.194-3.217-9.404-7.186-9.404-3.968 0-7.186 4.21-7.186 9.404s3.218 9.405 7.186 9.405z" fill="#3F3D56"/><path opacity=".1" d="M194.481 163.089a11.331 11.331 0 001.513-5.748c0-5.205-3.217-9.404-7.186-9.404-3.968 0-7.182 4.209-7.182 9.404-.021 2.015.497 4 1.499 5.748a11.763 11.763 0 000 11.493 11.767 11.767 0 000 11.496 11.326 11.326 0 00-1.499 5.748c0 5.205 3.217 9.405 7.182 9.405 3.966 0 7.186-4.21 7.186-9.405a11.327 11.327 0 00-1.5-5.748 11.757 11.757 0 000-11.496 11.752 11.752 0 000-11.493h-.013z" fill="#3F3D56"/><path opacity=".1" d="M188.795 155.252c3.969 0 7.186-4.21 7.186-9.404s-3.217-9.405-7.186-9.405c-3.968 0-7.186 4.211-7.186 9.405 0 5.194 3.218 9.404 7.186 9.404z" fill="#3F3D56"/><path opacity=".1" d="M188.795 143.757c3.969 0 7.186-4.21 7.186-9.404s-3.217-9.405-7.186-9.405c-3.968 0-7.186 4.211-7.186 9.405 0 5.194 3.218 9.404 7.186 9.404z" fill="#3F3D56"/><path opacity=".1" d="M154.229 76.966a34.26 34.26 0 007.364 21.274 34.42 34.42 0 00-3.906 36.311 34.409 34.409 0 0030.955 19.379 34.42 34.42 0 0030.956-19.379 34.415 34.415 0 00-3.907-36.31c4.613-5.856-61.462-25.14-61.462-21.275z" fill="#000"/></g><path opacity=".1" d="M85.817 207.653c3.233 0 5.853-3.43 5.853-7.661s-2.62-7.661-5.853-7.661c-3.232 0-5.852 3.43-5.852 7.661s2.62 7.661 5.852 7.661z" fill="#3F3D56"/><path d="M287.581 206.838c0 2.286-11.598 4.376-30.774 5.99-3.487.29-7.224.566-11.187.826-3.424.222-7.013.431-10.767.629-3.637.186-7.413.359-11.328.519-12.365.509-26.035.875-40.557 1.058-3.525.047-7.096.082-10.714.107-3.769.024-7.581.035-11.437.033-70.01 0-126.761-4.097-126.761-9.152 0-5.056 56.751-9.153 126.761-9.153 30.142 0 57.821.762 79.576 2.027l2.379.14h.014c27.405 1.674 44.795 4.193 44.795 6.976z" fill="#E1EEFA"/><path d="M137.638 116.334c-11.099 0-19.847-4.405-26.242-13.217-6.396-8.811-9.593-19.485-9.593-32.022 0-12.622 3.092-23.275 9.277-31.958 6.185-8.683 14.91-13.02 26.174-13.012 11.945 0 20.945 4.575 27 13.724 6.055 9.15 9.084 19.74 9.086 31.77 0 11.942-3.134 22.382-9.401 31.319-6.268 8.938-15.035 13.403-26.301 13.396zm.325-9.912c7.302 0 12.76-3.182 16.373-9.547 3.613-6.365 5.419-14.39 5.419-24.073 0-10.778-1.849-19.603-5.546-26.476-3.698-6.872-9.369-10.31-17.014-10.312-14.53 0-21.795 11.542-21.795 34.625 0 23.858 7.519 35.786 22.557 35.783h.006zm3.657 94.92h-16.054l105.098-173.45h15.751L141.62 201.341zm92.977 1.779c-11.266 0-20.049-4.445-26.349-13.337-6.3-8.891-9.463-19.567-9.489-32.026 0-12.537 3.071-23.147 9.212-31.831 6.142-8.683 14.888-13.02 26.239-13.012 11.861 0 20.798 4.575 26.811 13.725 6.014 9.15 9.022 19.738 9.024 31.766 0 11.864-3.113 22.285-9.339 31.261-6.226 8.976-14.931 13.461-26.115 13.454h.006zm.189-10.165c7.267 0 12.695-3.129 16.284-9.385 3.59-6.257 5.384-14.248 5.384-23.975 0-10.41-1.816-19.14-5.449-26.19-3.632-7.05-9.291-10.581-16.977-10.592-14.615 0-21.922 11.542-21.922 34.625-.004 23.68 7.553 35.519 22.673 35.517h.007z" fill="#3F3D56"/><path d="M137.638 116.334c-11.099 0-19.847-4.405-26.242-13.217-6.396-8.811-9.593-19.485-9.593-32.022 0-12.622 3.092-23.275 9.277-31.958 6.185-8.683 14.91-13.02 26.174-13.012 11.945 0 20.945 4.575 27 13.724 6.055 9.15 9.084 19.74 9.086 31.77 0 11.942-3.134 22.382-9.401 31.319-6.268 8.938-15.035 13.403-26.301 13.396zm.325-9.912c7.302 0 12.76-3.182 16.373-9.547 3.613-6.365 5.419-14.39 5.419-24.073 0-10.778-1.849-19.603-5.546-26.476-3.698-6.872-9.369-10.31-17.014-10.312-14.53 0-21.795 11.542-21.795 34.625 0 23.858 7.519 35.786 22.557 35.783h.006zm3.657 94.92h-16.054l105.098-173.45h15.751L141.62 201.341zm92.977 1.779c-11.266 0-20.049-4.445-26.349-13.337-6.3-8.891-9.463-19.567-9.489-32.026 0-12.537 3.071-23.147 9.212-31.831 6.142-8.683 14.888-13.02 26.239-13.012 11.861 0 20.798 4.575 26.811 13.725 6.014 9.15 9.022 19.738 9.024 31.766 0 11.864-3.113 22.285-9.339 31.261-6.226 8.976-14.931 13.461-26.115 13.454h.006zm.189-10.165c7.267 0 12.695-3.129 16.284-9.385 3.59-6.257 5.384-14.248 5.384-23.975 0-10.41-1.816-19.14-5.449-26.19-3.632-7.05-9.291-10.581-16.977-10.592-14.615 0-21.922 11.542-21.922 34.625-.004 23.68 7.553 35.519 22.673 35.517h.007z" fill="#3F3D56"/><path d="M137.638 116.334c-11.099 0-19.847-4.405-26.242-13.217-6.396-8.811-9.593-19.485-9.593-32.022 0-12.622 3.092-23.275 9.277-31.958 6.185-8.683 14.91-13.02 26.174-13.012 11.945 0 20.945 4.575 27 13.724 6.055 9.15 9.084 19.74 9.086 31.77 0 11.942-3.134 22.382-9.401 31.319-6.268 8.938-15.035 13.403-26.301 13.396zm.325-9.912c7.302 0 12.76-3.182 16.373-9.547 3.613-6.365 5.419-14.39 5.419-24.073 0-10.778-1.849-19.603-5.546-26.476-3.698-6.872-9.369-10.31-17.014-10.312-14.53 0-21.795 11.542-21.795 34.625 0 23.858 7.519 35.786 22.557 35.783h.006zm3.657 94.92h-16.054l105.098-173.45h15.751L141.62 201.341zm92.977 1.779c-11.266 0-20.049-4.445-26.349-13.337-6.3-8.891-9.463-19.567-9.489-32.026 0-12.537 3.071-23.147 9.212-31.831 6.142-8.683 14.888-13.02 26.239-13.012 11.861 0 20.798 4.575 26.811 13.725 6.014 9.15 9.022 19.738 9.024 31.766 0 11.864-3.113 22.285-9.339 31.261-6.226 8.976-14.931 13.461-26.115 13.454h.006zm.189-10.165c7.267 0 12.695-3.129 16.284-9.385 3.59-6.257 5.384-14.248 5.384-23.975 0-10.41-1.816-19.14-5.449-26.19-3.632-7.05-9.291-10.581-16.977-10.592-14.615 0-21.922 11.542-21.922 34.625-.004 23.68 7.553 35.519 22.673 35.517h.007z" fill="#076ACF"/><path d="M127.553 116.334c-11.099 0-19.846-4.405-26.242-13.217-6.395-8.811-9.593-19.485-9.593-32.022 0-12.622 3.093-23.275 9.278-31.958 6.185-8.683 14.909-13.02 26.174-13.012 11.945 0 20.945 4.575 27 13.724 6.055 9.15 9.083 19.74 9.085 31.77 0 11.942-3.133 22.382-9.401 31.319-6.267 8.938-15.034 13.403-26.301 13.396zm.326-9.912c7.302 0 12.759-3.182 16.372-9.547 3.613-6.365 5.42-14.39 5.42-24.073 0-10.778-1.849-19.603-5.547-26.476-3.697-6.872-9.368-10.31-17.013-10.312-14.53 0-21.795 11.542-21.795 34.625 0 23.858 7.519 35.786 22.556 35.783h.007zm3.656 94.92h-16.053L220.58 27.892h15.751l-104.796 173.45zm92.978 1.779c-11.267 0-20.05-4.445-26.35-13.337-6.3-8.891-9.463-19.567-9.489-32.026 0-12.537 3.071-23.147 9.213-31.831 6.141-8.683 14.888-13.02 26.239-13.012 11.86 0 20.797 4.575 26.811 13.725 6.014 9.15 9.022 19.738 9.024 31.766 0 11.864-3.113 22.285-9.34 31.261-6.226 8.976-14.931 13.461-26.115 13.454h.007zm.188-10.165c7.268 0 12.696-3.129 16.285-9.385 3.589-6.257 5.384-14.248 5.384-23.975 0-10.41-1.817-19.14-5.449-26.19-3.633-7.05-9.294-10.581-16.984-10.592-14.615 0-21.922 11.542-21.922 34.625 0 23.68 7.56 35.519 22.68 35.517h.006z" fill="#007EFF"/><path d="M102.317 177.328l1.122.228 3.822 5.647-1.688.228-3.256-6.103z" fill="#2F2E41"/><path d="M75.138 200.249c.303 1.001.676 1.98 1.116 2.928a26.955 26.955 0 003.728-1.064 10.176 10.176 0 00-.774-1.05 3.634 3.634 0 00-1.054-.81c-.387-.17-.866-.043-1.279-.02a30.49 30.49 0 01-1.737.016z" fill="#FBBEBE"/><path d="M78.16 201.758c-.631-.198-1.019-.836-1.275-1.451-.258-.614-.466-1.285-.954-1.737a.572.572 0 00-.429.326c-.094.162-.15.348-.257.504-.202.293-.56.436-.817.686-.257.251-.416.631-.692.882a2.757 2.757 0 01-1.302.501 8.232 8.232 0 00-2.036.754 3.513 3.513 0 01-.755.326c-.29.055-.588.065-.881.029l-2.027-.146a1.557 1.557 0 00-.54.026.977.977 0 00-.65 1.015 1.58 1.58 0 00.65 1.089c.352.252.74.45 1.152.586a34.738 34.738 0 005.432 1.552v.4c1.286.636 2.7.97 4.135.976a.661.661 0 00.325-.056.674.674 0 00.26-.397 15.98 15.98 0 00.843-4.404c.037-.38.009-.763-.085-1.132-.11-.365.267-.212-.084-.355" fill="#5D3E53"/><path d="M117.014 194.121c-6.008.364-11.942-1.399-17.96-1.588a9.026 9.026 0 00-2.231.143 11.03 11.03 0 00-2.212.859c-3.224 1.5-6.562 2.742-9.896 3.985l-3.826 1.425c-.767.283-1.558.572-2.374.524-.365-.023-.81-.078-1.018.227-.622.921-.326 2.277.084 3.312.134.325.358.699.716.738a2.11 2.11 0 00.732-.185c.696-.186 1.392.283 2.108.358.888.094 1.71-.41 2.547-.719 1.386-.511 2.902-.495 4.359-.739 2.446-.406 4.71-1.542 6.831-2.836.807-.491 1.627-1.018 2.55-1.197 1.064-.209 2.16.065 3.205.361a73.703 73.703 0 017.342 2.501 33.783 33.783 0 003.838 1.399c2.848.75 5.86.574 8.601-.501.976-.381 2.004-1.051 2.06-2.088.032-.592-.427-1.113-.732-1.627-.199-.325-.394-.65-.609-.959-1.034-1.51-2.29-3.504-4.115-3.393z" fill="#2F2E41"/><path d="M117.014 194.121c-6.008.364-11.942-1.399-17.96-1.588a9.026 9.026 0 00-2.231.143 11.03 11.03 0 00-2.212.859c-3.224 1.5-6.562 2.742-9.896 3.985l-3.826 1.425c-.767.283-1.558.572-2.374.524-.365-.023-.81-.078-1.018.227-.622.921-.326 2.277.084 3.312.134.325.358.699.716.738a2.11 2.11 0 00.732-.185c.696-.186 1.392.283 2.108.358.888.094 1.71-.41 2.547-.719 1.386-.511 2.902-.495 4.359-.739 2.446-.406 4.71-1.542 6.831-2.836.807-.491 1.627-1.018 2.55-1.197 1.064-.209 2.16.065 3.205.361a73.703 73.703 0 017.342 2.501 33.783 33.783 0 003.838 1.399c2.848.75 5.86.574 8.601-.501.976-.381 2.004-1.051 2.06-2.088.032-.592-.427-1.113-.732-1.627-.199-.325-.394-.65-.609-.959-1.034-1.51-2.29-3.504-4.115-3.393z" fill="#575988"/><path d="M86.67 200.542c.941.318 1.889.613 2.843.885.537-.882 1.539-1.494 1.766-2.499a.233.233 0 000-.133.242.242 0 00-.107-.098 5.32 5.32 0 00-2.228-.65c-.618-.039-.898.605-1.178 1.057-.097.182-.846 1.522-1.096 1.438z" fill="#FBBEBE"/><path d="M87.994 199.897a2.039 2.039 0 01-1.383-.907c-.133-.231-.273-.544-.54-.527-.266.016-.358.309-.413.553-.18.911-.44 1.805-.777 2.67a5.011 5.011 0 01-1.663 2.183c-.348.241-.735.423-1.076.677-.285.254-.59.484-.911.689a5.13 5.13 0 01-.7.261 4.81 4.81 0 00-.998.484 2.038 2.038 0 00-.68.651.973.973 0 00-.059.911.972.972 0 00.65.458c.275.046.554.052.83.02 1.097-.081 2.19-.179 3.283-.277a9.245 9.245 0 001.376-.188c.24-.059.475-.137.712-.199.41-.104.83-.165 1.252-.182a1.07 1.07 0 01.365.036c.254.081.433.325.693.384a1.08 1.08 0 00.494-.065c.8-.17 1.616-.255 2.433-.254.358-.02.781-.088.944-.41.205-.4-.133-.849-.27-1.278a4.014 4.014 0 01-.114-.84 5.113 5.113 0 00-.602-1.994c-.28-.514-.65-1.08-.465-1.626.1-.171.163-.36.185-.557-.045-.881-2.072-.556-2.566-.673z" fill="#5D3E53"/><path d="M108.006 184.485a4.705 4.705 0 01-2.394-2.378c-.097-.227-.182-.465-.276-.696a5.327 5.327 0 00-1.432-1.984.672.672 0 00-.53-.224.557.557 0 00-.39.416c-.056.212-.07.433-.042.65.055.505.142 1.006.26 1.5l.293 1.327c.036.204.098.403.182.592.125.223.29.42.488.583.266.247.536.484.81.715.15.137.315.257.491.358.288.137.597.227.914.267 1.194.221 2.407.54 3.412 1.301 0 0 0-.888-.022-.976a1.31 1.31 0 00-.254-.712c-.378-.407-1.028-.527-1.51-.739z" fill="#FBBEBE"/><path opacity=".1" d="M108.006 184.485a4.705 4.705 0 01-2.394-2.378c-.097-.227-.182-.465-.276-.696a5.327 5.327 0 00-1.432-1.984.672.672 0 00-.53-.224.557.557 0 00-.39.416c-.056.212-.07.433-.042.65.055.505.142 1.006.26 1.5l.293 1.327c.036.204.098.403.182.592.125.223.29.42.488.583.266.247.536.484.81.715.15.137.315.257.491.358.288.137.597.227.914.267 1.194.221 2.407.54 3.412 1.301 0 0 0-.888-.022-.976a1.31 1.31 0 00-.254-.712c-.378-.407-1.028-.527-1.51-.739z" fill="#000"/><path d="M120.237 174.335c.807 0 1.461-.658 1.461-1.47 0-.812-.654-1.47-1.461-1.47-.806 0-1.46.658-1.46 1.47 0 .812.654 1.47 1.46 1.47z" fill="#2F2E41"/><path d="M119.333 171.977a1.631 1.631 0 00-1.155.166 1.557 1.557 0 00-.393.54 7.628 7.628 0 00-.761 1.789c-.131.537-.153 1.097-.326 1.627-.299.976-1.067 1.805-1.155 2.823-.039.456.036.993-.296 1.302-.082.069-.17.131-.263.185a2.007 2.007 0 00-.576.592 1.869 1.869 0 01-.407.563c-.299.221-.79.198-.936.54-.147.341.231.738.143 1.109-.072.303-.41.443-.651.651-.274.29-.466.648-.556 1.037a3.441 3.441 0 01-2.794-.699c.406 1.005.416 2.114.432 3.198a1.32 1.32 0 01-.257.976c1.165.026 2.297.325 3.432.595a2.353 2.353 0 001.497 0c.259-.14.492-.325.686-.547.618-.627 1.265-1.301 1.415-2.176.04-.492.048-.987.026-1.48a8.5 8.5 0 01.374-1.792 20.93 20.93 0 00.651-3.693c.068-.77.732-1.389 1.083-2.078.651-1.301 1.334-2.651 1.386-4.109.045-.475-.117-1.057-.599-1.119z" fill="#2F2E41"/><path d="M119.333 171.977a1.631 1.631 0 00-1.155.166 1.557 1.557 0 00-.393.54 7.628 7.628 0 00-.761 1.789c-.131.537-.153 1.097-.326 1.627-.299.976-1.067 1.805-1.155 2.823-.039.456.036.993-.296 1.302-.082.069-.17.131-.263.185a2.007 2.007 0 00-.576.592 1.869 1.869 0 01-.407.563c-.299.221-.79.198-.936.54-.147.341.231.738.143 1.109-.072.303-.41.443-.651.651-.274.29-.466.648-.556 1.037a3.441 3.441 0 01-2.794-.699c.406 1.005.416 2.114.432 3.198a1.32 1.32 0 01-.257.976c1.165.026 2.297.325 3.432.595a2.353 2.353 0 001.497 0c.259-.14.492-.325.686-.547.618-.627 1.265-1.301 1.415-2.176.04-.492.048-.987.026-1.48a8.5 8.5 0 01.374-1.792 20.93 20.93 0 00.651-3.693c.068-.77.732-1.389 1.083-2.078.651-1.301 1.334-2.651 1.386-4.109.045-.475-.117-1.057-.599-1.119z" fill="#F47A8C"/><path d="M117.967 195.385c-1.252-.595-2.166-1.704-3.178-2.654-1.932-1.815-4.294-3.097-6.324-4.798-1.343-1.126-2.547-2.437-4.027-3.38a10.002 10.002 0 00-4.313-1.513 1.22 1.22 0 00-.527.026 1.262 1.262 0 00-.492.391 15.298 15.298 0 00-1.74 2.391c-2.573 4.365-6.226 8.038-9.255 12.101a.543.543 0 00-.036.735l.615 1.207c.345.673.898 1.461 1.627 1.327a1.8 1.8 0 00.862-.55l2.765-2.644 2.898-2.772c1.698-1.626 3.426-3.285 4.535-5.361.865 1.5 2.401 2.482 3.455 3.858.4.521.725 1.096 1.083 1.649.576.889 1.226 1.721 1.877 2.551l3.328 4.245c.42.605.94 1.133 1.538 1.561.788.498 1.747.632 2.674.713 1.249.114 2.504.159 3.758.137.956-.017 1.951-.079 2.797-.505.846-.426 1.565-1.301 1.519-2.254a3.343 3.343 0 00-.478-1.409c-1.174-2.179-2.729-4.001-4.961-5.052z" fill="#575988"/><path d="M121.135 175.012c.62 0 1.123-.505 1.123-1.128 0-.624-.503-1.129-1.123-1.129-.619 0-1.122.505-1.122 1.129 0 .623.503 1.128 1.122 1.128z" fill="#E8E8F0"/><path d="M120.888 173.034c.254.505.298 1.089.124 1.627a6.316 6.316 0 01-.722 1.496c-.263.48-.579.929-.94 1.34 1.733.085 3.415-.595 4.944-1.421 1.233-.651 2.463-1.48 3.12-2.72a1.448 1.448 0 01-1.148-.211 4.319 4.319 0 01-.882-.82l-.869-.976a3.876 3.876 0 01-.536-.706 1.949 1.949 0 01-.231-1.135 6.511 6.511 0 01-1.152.956c-.621.407-1.301.7-1.929 1.1-.221.143-.712.374-.585.65.126.277.631.508.806.82z" fill="#FBBEBE"/><path opacity=".1" d="M120.888 173.034c.254.505.298 1.089.124 1.627a6.316 6.316 0 01-.722 1.496c-.263.48-.579.929-.94 1.34 1.733.085 3.415-.595 4.944-1.421 1.233-.651 2.463-1.48 3.12-2.72a1.448 1.448 0 01-1.148-.211 4.319 4.319 0 01-.882-.82l-.869-.976a3.876 3.876 0 01-.536-.706 1.949 1.949 0 01-.231-1.135 6.511 6.511 0 01-1.152.956c-.621.407-1.301.7-1.929 1.1-.221.143-.712.374-.585.65.126.277.631.508.806.82z" fill="#000"/><path d="M120.911 173.203a1.47 1.47 0 000 1.695c.049.062.234.449.326.452a.295.295 0 00.198-.1c.393-.411.76-.846 1.099-1.302a2.426 2.426 0 011.399-.917c.68-.107 1.334.254 1.929.599.256.127.479.311.651.54.125.226.2.477.218.735.171 1.551.236 3.111.195 4.671a17.907 17.907 0 01-.221 3.36c-.111.573-.277 1.132-.355 1.711-.057.51-.08 1.023-.068 1.536v2.147c-.014.393.014.787.085 1.174.134.462.291.917.471 1.363.159.531.267 1.076.325 1.627l.293 2.222c.095.702.163 1.467-.263 2.029-.189.257-.443.459-.651.713-.732.93-.488 2.28-.813 3.435a4.35 4.35 0 01-1.412 2.163c-.517.439-1.187.788-1.857.651-.901-.169-1.445-1.109-1.692-1.997-.247-.889-.325-1.858-.868-2.603-.436-.615-1.11-.999-1.718-1.438-.608-.439-1.207-1.002-1.34-1.743-.059-.326-.023-.651-.056-.976a2.323 2.323 0 00-1.437-1.887c-.462-.179-1.035-.244-1.302-.651a3.132 3.132 0 001.354-1.818 9.376 9.376 0 00.325-2.277l.156-2.583c.068-1.155.101-2.3.608-3.338.228-.462.511-.897.745-1.356a15.16 15.16 0 00.801-1.991c.367-1.057.738-2.118 1.067-3.188a6.321 6.321 0 01.585-1.487c.303-.487.703-1.073 1.223-1.171z" fill="#E8E8F0"/><path d="M115.177 189.986l.683.022.146-1.031a2.23 2.23 0 01.143-.602c.114-.203.245-.396.394-.575.673-.95.624-2.213.79-3.367.221-1.539.866-2.983 1.503-4.402l1.327-2.957a4.19 4.19 0 00.283-.758c.058-.288.086-.581.082-.875 0-.455.149-2.117.159-2.576 0-.169-.371-.075-.449-.225-.166-.325-.393.56-.706.755a1.734 1.734 0 00-.611.895c-.287.745-.462 1.529-.729 2.277a4.685 4.685 0 01-1.239 2.013c-.27.241-.586.43-.843.684-.826.816-.904 2.104-.933 3.253-.02.712-.153 7.469 0 7.469zm9.84-18.016c-.651.26-1.028.976-1.213 1.672-.186.696-.264 1.431-.622 2.049-.833 1.451-2.957 1.874-3.546 3.442a6.348 6.348 0 00-.237 1.627c-.104 1.122-.475 2.208-.586 3.331-.057.873-.036 1.749.062 2.618l.745 8.858a11.7 11.7 0 01-.224 3.904 3.743 3.743 0 002.231-.368c.7-.325 1.337-.754 2.007-1.125 1.155-.651 2.43-1.09 3.439-1.952a2.04 2.04 0 00.465-.511c.162-.372.271-.765.325-1.168a6.62 6.62 0 01.326-.917c.373-.893.699-1.805.976-2.732.189-.616.338-1.243.445-1.877.082-.505.124-1.015.169-1.523a8.965 8.965 0 01.472-2.342 18.766 18.766 0 001.083-5.611 2.8 2.8 0 00-.055-.827 4.411 4.411 0 00-.449-.937c-.309-.582-.494-1.223-.787-1.812-.651-1.333-1.819-2.345-3.038-3.194-.625-.413-1.311-.862-1.988-.605z" fill="#ED677B"/><path d="M109.487 186.423a5.34 5.34 0 01-1.416-1.073c-.185-.218-.325-.462-.527-.677a3.474 3.474 0 00-1.779-1.015 8.557 8.557 0 00-2.062-.198 3.655 3.655 0 00-1.37.166 1.38 1.38 0 00-.911.976c-.101.553.261 1.089.693 1.441.403.328.876.559 1.383.673.413.072.83.121 1.249.147 2.459.257 4.655 1.593 6.808 2.813a91.41 91.41 0 005.791 3.003c.078-.589.11-1.183.097-1.776 0-.443-.032-1.119-.452-1.38-.488-.305-1.301-.374-1.841-.556a29.04 29.04 0 01-5.663-2.544zm10.75-13.894c2.42 0 4.382-1.973 4.382-4.407 0-2.435-1.962-4.408-4.382-4.408s-4.382 1.973-4.382 4.408c0 2.434 1.962 4.407 4.382 4.407z" fill="#FBBEBE"/><path d="M126.269 176.968a7.106 7.106 0 00-.849 1.584c-.543 1.116-1.392 2.072-1.815 3.253-.449 1.226-.433 2.687-1.302 3.653a1.258 1.258 0 00-.38.553 2.832 2.832 0 01-.046.4c-.123.351-.699.368-.806.725-.03.105 0 .218-.053.326-.087.231-.39.263-.595.403-.426.29-.325.96-.65 1.376a1.152 1.152 0 01-1.093.384 4.069 4.069 0 01-1.139-.426 1.01 1.01 0 00-.407-.127.833.833 0 00-.471.159c-.81.514-1.191 1.536-1.184 2.499.057.963.285 1.908.673 2.791.046.152.122.294.224.416.267.283.736.238 1.093.078a5.146 5.146 0 011.064-.475c.677-.123 1.34.345 2.027.306a2.849 2.849 0 001.369-.605 7.57 7.57 0 001.848-1.578c.299-.393.521-.842.784-1.262.337-.515.706-1.009 1.106-1.477l2.528-3.093a6.66 6.66 0 00.679-.94 6.93 6.93 0 00.531-1.412c.271-.816.446-1.659.523-2.515a10.036 10.036 0 00-.185-2.111 7.362 7.362 0 00-.543-2.007c-.563-1.139-1.9-2.082-2.931-.878z" fill="#F47A8C"/><path d="M135.071 171.225a4.939 4.939 0 00-2.03-4.011 5.853 5.853 0 00-4.98-5.709 5.693 5.693 0 00-11.213.303c-1.822-.41-3.487.123-3.79 1.245-.325 1.175.976 2.548 2.902 3.068a5.34 5.34 0 001.857.186 5.71 5.71 0 003.923 2.439 5.84 5.84 0 004.278 4.415c.292.704.744 1.33 1.321 1.828 0 .136-.023.276-.023.419a3.706 3.706 0 002.252 3.57 3.723 3.723 0 002.913 0 3.706 3.706 0 002.016-2.102c.177-.468.257-.967.236-1.468a3.9 3.9 0 00-.355-1.626 4.978 4.978 0 00.693-2.557z" fill="#85555C"/><path opacity=".1" d="M114.295 163.278c.302-1.122 1.951-1.656 3.789-1.246a5.786 5.786 0 015.638-4.879h.377a5.53 5.53 0 00-1.626-.241 5.79 5.79 0 00-5.638 4.88c-1.821-.41-3.487.123-3.79 1.246-.325 1.174.976 2.547 2.902 3.067.358.099.726.163 1.096.189-1.828-.534-3.057-1.867-2.748-3.016zm14.258 12.358c0-.143 0-.283.023-.422a4.855 4.855 0 01-1.321-1.825 5.86 5.86 0 01-4.278-4.418 5.699 5.699 0 01-3.923-2.44 5.188 5.188 0 01-1.093-.029 5.688 5.688 0 003.78 2.245 5.827 5.827 0 004.278 4.414c.291.704.743 1.33 1.32 1.828 0 .137-.022.277-.022.42a3.778 3.778 0 003.688 3.838 3.83 3.83 0 01-2.452-3.611z" fill="#000"/><path d="M122.243 169.737c.297-.226.294-.731-.007-1.127s-.786-.534-1.083-.308c-.298.226-.295.73.006 1.126.301.397.786.535 1.084.309z" fill="#FBBEBE"/></g><defs><clipPath id="clip0"><path fill="#fff" d="M0 0h287.241v216H0z"/></clipPath></defs></svg>