<svg width="46" height="46" fill="none" xmlns="http://www.w3.org/2000/svg"><path d="M27.253 15.575L23 19.828l-4.253-4.253a2.24 2.24 0 00-3.172 0 2.24 2.24 0 000 3.172L19.828 23l-4.253 4.253a2.24 2.24 0 000 3.172 2.24 2.24 0 003.172 0L23 26.172l4.253 4.253a2.24 2.24 0 003.172 0 2.24 2.24 0 000-3.172L26.172 23l4.253-4.253a2.24 2.24 0 000-3.172c-.878-.855-2.317-.855-3.172 0zM23 .5C10.557.5.5 10.557.5 23S10.557 45.5 23 45.5 45.5 35.443 45.5 23 35.443.5 23 .5zM23 41c-9.922 0-18-8.078-18-18S13.078 5 23 5s18 8.078 18 18-8.078 18-18 18z" fill="#fff"/></svg>