<svg width="131" height="42" fill="none" xmlns="http://www.w3.org/2000/svg"><path fill-rule="evenodd" clip-rule="evenodd" d="M6.5 5.5l5.4 5.4c-4.474 4.473-4.474 11.726 0 16.2 4.473 4.473 11.726 4.473 16.2 0 4.473-4.474 4.473-11.727 0-16.2l5.4-5.4c7.455 7.455 7.455 19.544 0 27-7.456 7.455-19.545 7.455-27 0-7.456-7.456-7.456-19.545 0-27z" fill="#fff"/><path d="M59.156 21.77h-6.468v4.066h7.64V29H48.574V11.937h11.778v3.176h-7.664v3.598h6.468v3.059zm7.418 2.53l2.004-7.98h4.16L68.602 29H64.57l-4.136-12.68h4.172l1.968 7.98zm13.313 4.934c-1.945 0-3.52-.578-4.723-1.734-1.203-1.164-1.805-2.676-1.805-4.535v-.328c0-1.297.239-2.442.715-3.434.485-.992 1.188-1.758 2.11-2.297.922-.547 2.015-.82 3.281-.82 1.781 0 3.188.555 4.219 1.664 1.031 1.102 1.547 2.64 1.547 4.617v1.535h-7.852c.14.711.45 1.27.926 1.676.476.406 1.094.61 1.851.61 1.25 0 2.227-.438 2.93-1.313l1.805 2.133c-.492.68-1.192 1.222-2.098 1.629a7.088 7.088 0 01-2.906.597zm-.445-10.101c-1.157 0-1.844.765-2.063 2.297h3.984v-.305c.016-.633-.144-1.121-.48-1.465-.336-.352-.816-.527-1.441-.527zm15.058.762l-1.3-.094c-1.243 0-2.04.39-2.391 1.172V29h-3.95V16.32h3.704l.129 1.63c.664-1.243 1.59-1.864 2.777-1.864.422 0 .789.047 1.101.14l-.07 3.669zm.727 2.671c0-1.28.21-2.414.632-3.398.422-.985 1.028-1.742 1.817-2.273.789-.54 1.707-.81 2.754-.81 1.32 0 2.351.446 3.094 1.337l.14-1.102h3.586v12.2c0 1.117-.262 2.085-.785 2.906-.516.828-1.266 1.46-2.25 1.898-.984.446-2.125.668-3.422.668-.93 0-1.832-.176-2.707-.527-.867-.352-1.531-.809-1.992-1.371l1.652-2.32c.735.867 1.703 1.3 2.906 1.3 1.75 0 2.625-.898 2.625-2.695v-.399c-.757.836-1.714 1.254-2.871 1.254-1.547 0-2.797-.59-3.75-1.77-.953-1.187-1.43-2.773-1.43-4.757v-.14zm3.96.246c0 1.04.196 1.864.587 2.473.39.602.937.902 1.64.902.852 0 1.473-.285 1.863-.855V20c-.382-.578-.996-.867-1.839-.867-.704 0-1.254.316-1.653.949-.398.625-.597 1.535-.597 2.73zm16.442 6.422c-1.945 0-3.52-.578-4.723-1.734-1.203-1.164-1.804-2.676-1.804-4.535v-.328c0-1.297.238-2.442.715-3.434.484-.992 1.187-1.758 2.109-2.297.922-.547 2.016-.82 3.281-.82 1.781 0 3.188.555 4.219 1.664 1.031 1.102 1.547 2.64 1.547 4.617v1.535h-7.852c.141.711.449 1.27.926 1.676.477.406 1.094.61 1.852.61 1.25 0 2.226-.438 2.929-1.313l1.805 2.133c-.492.68-1.191 1.222-2.098 1.629a7.085 7.085 0 01-2.906.597zm-.445-10.101c-1.157 0-1.844.765-2.063 2.297h3.985v-.305c.015-.633-.145-1.121-.481-1.465-.336-.352-.816-.527-1.441-.527zm11.988-5.965v3.152h2.086v2.742h-2.086v5.801c0 .477.086.809.258.996.172.188.512.282 1.019.282.391 0 .719-.024.985-.07v2.823a7.29 7.29 0 01-2.227.34c-1.359 0-2.363-.32-3.012-.96-.648-.641-.972-1.614-.972-2.919v-6.293h-1.617V16.32h1.617v-3.152h3.949z" fill="#fff"/></svg>