<svg width="15" height="15" fill="none" xmlns="http://www.w3.org/2000/svg"><path d="M7.5 0C3.36 0 0 3.36 0 7.5 0 11.64 3.36 15 7.5 15c4.14 0 7.5-3.36 7.5-7.5C15 3.36 11.64 0 7.5 0zm.75 12.75h-1.5v-1.5h1.5v1.5zm1.553-5.813l-.676.69c-.375.383-.645.728-.78 1.268-.06.24-.097.51-.097.855h-1.5v-.375a2.998 2.998 0 01.878-2.122l.93-.946c.345-.33.51-.825.412-1.35A1.493 1.493 0 007.927 3.81a1.512 1.512 0 00-1.852.953c-.09.277-.322.487-.615.487h-.225a.65.65 0 01-.615-.84 3.006 3.006 0 012.423-2.123c1.14-.18 2.227.413 2.902 1.35.885 1.223.623 2.536-.143 3.3z" fill="#A0A4A8"/></svg>